<svg xmlns="http://www.w3.org/2000/svg" width="735.296" height="703.858" viewBox="0 0 735.296 703.858">
  <g id="Tablet_login-bro" data-name="Tablet login-bro" transform="translate(-14.037 -22.191)">
    <g id="freepik--background-simple--inject-7" transform="translate(14.037 22.191)">
      <path id="Path_1243" data-name="Path 1243" d="M732.185,418.564C711.2,482.159,665.993,551.882,599.444,574.573c-100.532,34.309-109.553,116.754-291.97,116.194a368.455,368.455,0,0,1-79.225-8.507,306.863,306.863,0,0,1-37.513-10.887C82.644,632.382,23.467,539.658,14.99,440.572,3.87,310.24,92.551,244.5,150.3,205.726S273.989,23.061,453.373,22.205A355.733,355.733,0,0,1,534.791,30.9c60.9,14,123.581,47.7,161.234,99.07,2.815,3.857,5.521,7.776,8.134,11.851C755,220.875,760.8,331.843,732.185,418.564Z" transform="translate(-14.037 -22.191)" fill="#69be96"/>
      <path id="Path_1244" data-name="Path 1244" d="M732.185,418.564C711.2,482.159,665.993,551.882,599.444,574.573c-100.532,34.309-109.553,116.754-291.97,116.194a368.455,368.455,0,0,1-79.225-8.507,306.863,306.863,0,0,1-37.513-10.887C82.644,632.382,23.467,539.658,14.99,440.572,3.87,310.24,92.551,244.5,150.3,205.726S273.989,23.061,453.373,22.205A355.733,355.733,0,0,1,534.791,30.9c60.9,14,123.581,47.7,161.234,99.07,2.815,3.857,5.521,7.776,8.134,11.851C755,220.875,760.8,331.843,732.185,418.564Z" transform="translate(-14.037 -22.191)" fill="#fff" opacity="0.7"/>
    </g>
    <g id="freepik--Floor--inject-7" transform="translate(38.568 698.963)">
      <path id="Path_1245" data-name="Path 1245" d="M723.521,458.9H30.588a.778.778,0,1,1,0-1.555H723.521a.778.778,0,1,1,0,1.555Z" transform="translate(-29.81 -457.34)" fill="#263238"/>
    </g>
    <g id="freepik--Asterisks--inject-7" transform="translate(54.214 50.2)">
      <path id="Path_1246" data-name="Path 1246" d="M42.9,213.34l-1.882-1.12,2.364-3.3-3.515-1.369.762-2.037,3.375,1.789-.358-4.106H46.06l-.389,4.106,3.39-1.789.747,2.037-3.515,1.369,2.38,3.266-1.929,1.135-1.913-3.717Z" transform="translate(-39.87 50.308)" fill="#263238"/>
      <path id="Path_1247" data-name="Path 1247" d="M50.523,213.335l-1.882-1.12,2.348-3.3-3.5-1.369.793-2.022,3.375,1.789L51.3,203.21h2.411l-.389,4.106,3.39-1.789.747,2.037-3.515,1.369,2.38,3.266L54.4,213.335l-1.913-3.717Z" transform="translate(-35.639 50.314)" fill="#263238"/>
      <path id="Path_1248" data-name="Path 1248" d="M58.148,213.34l-1.882-1.12,2.348-3.3L55.1,207.555l.778-2.037,3.359,1.789-.358-4.106h2.426l-.389,4.106,3.359-1.773.778,2.022-3.515,1.369,2.38,3.266-1.929,1.135-1.913-3.717Z" transform="translate(-31.413 50.308)" fill="#263238"/>
      <path id="Path_1249" data-name="Path 1249" d="M65.768,213.34l-1.882-1.12,2.38-3.313-3.546-1.353.778-2.037,3.359,1.789L66.5,203.2H68.91l-.389,4.106,3.406-1.789.747,2.037-3.515,1.369,2.38,3.266-1.944,1.135-1.9-3.717Z" transform="translate(-27.182 50.308)" fill="#263238"/>
      <path id="Path_1250" data-name="Path 1250" d="M73.373,213.335,71.506,212.2l2.348-3.3-3.515-1.353.778-2.037,3.359,1.8-.358-4.106H76.53l-.389,4.106,3.406-1.789.731,2.037-3.5,1.369,2.364,3.282L77.2,213.35l-1.9-3.717Z" transform="translate(-22.951 50.314)" fill="#263238"/>
      <path id="Path_1251" data-name="Path 1251" d="M80.971,213.34,79.1,212.2l2.348-3.3L78,207.555l.778-2.037,3.359,1.789-.358-4.106H84.19l-.389,4.106,3.406-1.789.731,2.037-3.515,1.369,2.4,3.266-1.944,1.135-1.9-3.717Z" transform="translate(-18.698 50.308)" fill="#263238"/>
      <path id="Path_1252" data-name="Path 1252" d="M88.613,213.335l-1.882-1.12,2.364-3.3-3.515-1.369.778-2.037,3.359,1.789-.373-4.09h2.411l-.389,4.106,3.39-1.789.809,2.022-3.515,1.369,2.38,3.266L92.5,213.319,90.6,209.6Z" transform="translate(-14.489 50.314)" fill="#263238"/>
      <path id="Path_1253" data-name="Path 1253" d="M96.233,213.34l-1.882-1.12,2.364-3.3L93.2,207.555l.762-2.037,3.375,1.789-.358-4.106H99.39L99,207.306l3.39-1.789.747,2.037-3.515,1.369,2.38,3.266-1.929,1.135-1.913-3.717Z" transform="translate(-10.258 50.308)" fill="#263238"/>
      <path id="Path_1254" data-name="Path 1254" d="M103.853,213.335l-1.882-1.135,2.348-3.3-3.5-1.338.762-2.037,3.375,1.789-.358-4.106h2.411l-.389,4.106,3.39-1.789.747,2.037-3.515,1.369,2.38,3.266-1.929,1.135-1.929-3.717Z" transform="translate(-6.027 50.314)" fill="#263238"/>
      <path id="Path_1255" data-name="Path 1255" d="M171.9,50.387l-1.882-1.166,2.348-3.313-3.515-1.353.778-2.022,3.359,1.789-.358-4.121h2.426l-.389,4.121,3.39-1.789.747,2.022-3.515,1.369,2.38,3.3-1.929,1.12-1.913-3.717Z" transform="translate(31.748 -40.2)" fill="#263238"/>
      <path id="Path_1256" data-name="Path 1256" d="M179.5,50.387l-1.866-1.12,2.348-3.313-3.515-1.4.778-2.022,3.359,1.789-.358-4.121h2.411l-.389,4.121,3.406-1.789.747,2.022-3.515,1.369,2.38,3.3-1.944,1.12-1.9-3.717Z" transform="translate(35.979 -40.2)" fill="#263238"/>
      <path id="Path_1257" data-name="Path 1257" d="M187.061,50.387l-1.866-1.12,2.348-3.313-3.453-1.4.778-2.022,3.359,1.789-.358-4.121h2.411l-.389,4.121,3.39-1.726.731,2.022L190.5,45.986l2.411,3.235-1.944,1.12-1.9-3.717Z" transform="translate(40.21 -40.2)" fill="#263238"/>
      <path id="Path_1258" data-name="Path 1258" d="M194.743,50.387l-1.866-1.12,2.4-3.313-3.562-1.4.778-2.022,3.359,1.789-.358-4.121H197.9l-.389,4.121,3.39-1.789.747,2.022-3.515,1.369,2.38,3.3-1.929,1.12-1.9-3.717Z" transform="translate(44.442 -40.2)" fill="#263238"/>
      <path id="Path_1259" data-name="Path 1259" d="M202.363,50.365,200.481,49.2l2.364-3.313-3.515-1.353.778-2.022,3.375,1.851-.358-4.121h2.411l-.389,4.121,3.39-1.789.747,2.022-3.515,1.369,2.38,3.235-1.929,1.12L204.307,46.6Z" transform="translate(48.673 -40.178)" fill="#263238"/>
      <path id="Path_1260" data-name="Path 1260" d="M209.955,50.387l-1.882-1.166,2.364-3.313L207,44.555l.762-2.022,3.375,1.789-.358-4.121h2.411l-.389,4.121,3.39-1.789.747,2.022-3.515,1.369,2.3,3.3L213.8,50.34l-1.913-3.717Z" transform="translate(52.932 -40.2)" fill="#263238"/>
      <path id="Path_1261" data-name="Path 1261" d="M217.6,50.365,215.721,49.2l2.348-3.313-3.5-1.353.762-2.022,3.375,1.789-.358-4.059h2.411l-.389,4.121,3.39-1.789.809,1.96L221.055,45.9l2.317,3.3-1.929,1.12L219.531,46.6Z" transform="translate(57.135 -40.178)" fill="#263238"/>
      <path id="Path_1262" data-name="Path 1262" d="M225.228,50.387l-1.882-1.166,2.348-3.313-3.515-1.353.778-2.022,3.359,1.789-.358-4.121h2.426L228,44.321l3.39-1.789.747,2.022-3.515,1.369,2.38,3.3-1.929,1.12-1.913-3.717Z" transform="translate(61.36 -40.2)" fill="#263238"/>
      <path id="Path_1263" data-name="Path 1263" d="M232.848,50.387l-1.882-1.166,2.348-3.313L229.8,44.555l.778-2.022,3.359,1.789-.358-4.121h2.411l-.373,4.121,3.39-1.789.747,2.022-3.515,1.369,2.38,3.3-1.944,1.12-1.9-3.67Z" transform="translate(65.592 -40.2)" fill="#263238"/>
      <path id="Path_1264" data-name="Path 1264" d="M404.913,150.345l-1.866-1.135,2.348-3.313-3.515-1.338.778-2.022,3.359,1.789-.358-4.106h2.411l-.389,4.106,3.406-1.789.731,2.022-3.5,1.384,2.38,3.266-1.944,1.135-1.9-3.733Z" transform="translate(161.142 15.338)" fill="#263238"/>
      <path id="Path_1265" data-name="Path 1265" d="M412.533,150.35l-1.866-1.135,2.349-3.313-3.515-1.353.778-2.022,3.359,1.789-.358-4.106h2.411l-.389,4.106,3.406-1.789.731,2.022-3.515,1.384,2.4,3.266-1.944,1.135-1.9-3.733Z" transform="translate(165.373 15.332)" fill="#263238"/>
      <path id="Path_1266" data-name="Path 1266" d="M420.153,150.345l-1.882-1.135,2.364-3.313-3.515-1.338.778-2.022,3.359,1.789-.358-4.106h2.411l-.389,4.106,3.391-1.789.747,2.022-3.515,1.384,2.38,3.266-1.928,1.135-1.9-3.733Z" transform="translate(169.604 15.338)" fill="#263238"/>
      <path id="Path_1267" data-name="Path 1267" d="M427.773,150.345l-1.882-1.135,2.364-3.313-3.515-1.338.762-2.022,3.375,1.789-.358-4.106h2.411l-.389,4.106,3.39-1.789.747,2.022-3.515,1.384,2.38,3.266-1.929,1.135-1.913-3.733Z" transform="translate(173.835 15.338)" fill="#263238"/>
      <path id="Path_1268" data-name="Path 1268" d="M435.393,150.345l-1.882-1.135,2.348-3.313-3.5-1.338.762-2.022,3.375,1.789-.358-4.106h2.411l-.389,4.106,3.391-1.789.747,2.022-3.515,1.384,2.348,3.266-1.929,1.135-1.913-3.733Z" transform="translate(178.066 15.338)" fill="#263238"/>
      <path id="Path_1269" data-name="Path 1269" d="M443,150.35l-1.882-1.135,2.348-3.313L440,144.549l.762-2.022,3.375,1.789-.358-4.106h2.442l-.389,4.106,3.39-1.789.747,2.022-3.515,1.384,2.38,3.266-1.929,1.135-1.913-3.733Z" transform="translate(182.308 15.332)" fill="#263238"/>
      <path id="Path_1270" data-name="Path 1270" d="M450.638,150.345l-1.882-1.135L451.1,145.9l-3.515-1.338.778-2.022,3.359,1.789-.358-4.106H453.8l-.389,4.106,3.39-1.789.762,2.006-3.515,1.384,2.38,3.266-1.929,1.135-1.913-3.733Z" transform="translate(186.523 15.338)" fill="#263238"/>
      <path id="Path_1271" data-name="Path 1271" d="M458.221,150.345l-1.8-1.135,2.348-3.313-3.515-1.338.778-2.022,3.359,1.789-.358-4.106h2.411l-.389,4.106,3.406-1.789.747,2.022-3.515,1.384,2.38,3.266-1.944,1.135-1.9-3.733Z" transform="translate(190.776 15.338)" fill="#263238"/>
      <path id="Path_1272" data-name="Path 1272" d="M465.863,150.345,464,149.209l2.348-3.313-3.515-1.338.778-2.022,3.359,1.789-.358-4.106h2.411l-.389,4.106,3.406-1.789.731,2.022-3.5,1.384,2.38,3.266-1.944,1.135-1.9-3.733Z" transform="translate(194.985 15.338)" fill="#263238"/>
    </g>
    <g id="freepik--user-icons--inject-7" transform="translate(67.978 196.939)">
      <path id="Path_1273" data-name="Path 1273" d="M86.482,210.043a37.746,37.746,0,1,1,37.731-37.751A37.762,37.762,0,0,1,86.482,210.043Zm0-73.953a36.2,36.2,0,1,0,0-.008Z" transform="translate(-48.72 -134.55)" fill="#263238"/>
      <path id="Path_1274" data-name="Path 1274" d="M78.791,177.1a16.221,16.221,0,1,1,16.221-16.221A16.221,16.221,0,0,1,78.791,177.1Zm0-30.872a14.666,14.666,0,1,0,14.666,14.651,14.666,14.666,0,0,0-14.666-14.651Z" transform="translate(-41.03 -128.936)" fill="#263238"/>
      <path id="Path_1275" data-name="Path 1275" d="M81.432,193.027A37.326,37.326,0,0,1,58.1,184.955a.747.747,0,0,1-.264-.778,24.153,24.153,0,0,1,47.187,0,.778.778,0,0,1-.28.778,37.7,37.7,0,0,1-23.313,8.072Zm-21.976-8.989a36.175,36.175,0,0,0,43.936,0,22.6,22.6,0,0,0-43.936,0Z" transform="translate(-43.67 -117.534)" fill="#263238"/>
      <path id="Path_1276" data-name="Path 1276" d="M454.182,455.693a37.746,37.746,0,1,1,37.731-37.751A37.762,37.762,0,0,1,454.182,455.693Zm0-73.953a36.207,36.207,0,1,0,36.207,36.207A36.253,36.253,0,0,0,454.182,381.74Z" transform="translate(155.451 1.851)" fill="#263238"/>
      <path id="Path_1277" data-name="Path 1277" d="M446.491,422.753a16.221,16.221,0,1,1,16.221-16.221A16.221,16.221,0,0,1,446.491,422.753Zm0-30.888a14.666,14.666,0,1,0,14.666,14.666A14.666,14.666,0,0,0,446.491,391.865Z" transform="translate(163.142 7.465)" fill="#263238"/>
      <path id="Path_1278" data-name="Path 1278" d="M449.135,438.669a37.326,37.326,0,0,1-23.329-8.072.778.778,0,0,1-.28-.778,24.169,24.169,0,0,1,47.2,0,.778.778,0,0,1-.28.778,37.7,37.7,0,0,1-23.313,8.072Zm-21.976-8.927a35.771,35.771,0,0,0,21.976,7.434,36.254,36.254,0,0,0,21.96-7.434,22.6,22.6,0,0,0-43.936,0Z" transform="translate(160.498 18.874)" fill="#263238"/>
    </g>
    <g id="freepik--Padlocks--inject-7" transform="translate(73.079 77.524)">
      <path id="Path_1279" data-name="Path 1279" d="M476.8,146.237h-60.92a.793.793,0,0,1-.778-.778V85.878a.778.778,0,0,1,.778-.778H476.8a.778.778,0,0,1,.778.778V145.46A.793.793,0,0,1,476.8,146.237Zm-60.142-1.555H476.02V86.655H416.655Z" transform="translate(149.617 -42.592)" fill="#263238"/>
      <path id="Path_1280" data-name="Path 1280" d="M474.433,101.847h-10.42V87.367a18.508,18.508,0,1,0-37,0v14.48h-10.42V87.367a28.928,28.928,0,1,1,57.84,0Zm-8.865-1.555h7.31V87.367a27.373,27.373,0,1,0-54.73,0v12.924h7.31V87.367a20.063,20.063,0,1,1,40.11,0Z" transform="translate(150.441 -57.769)" fill="#263238"/>
      <path id="Path_1281" data-name="Path 1281" d="M440.5,124.378h-5.086a.778.778,0,0,1-.778-.778V110.287a7.776,7.776,0,1,1,6.641,0v13.36A.778.778,0,0,1,440.5,124.378Zm-4.308-1.555h3.53v-13.1a.793.793,0,0,1,.5-.731,6.221,6.221,0,1,0-4.526,0,.793.793,0,0,1,.5.731Z" transform="translate(157.993 -36.83)" fill="#263238"/>
      <path id="Path_1282" data-name="Path 1282" d="M113.7,462.218H52.778A.778.778,0,0,1,52,461.44V401.858a.793.793,0,0,1,.778-.778H113.7a.793.793,0,0,1,.778.778V461.44a.778.778,0,0,1-.778.778Zm-60.142-1.555H112.92V402.635H53.555Z" transform="translate(-52 132.86)" fill="#263238"/>
      <path id="Path_1283" data-name="Path 1283" d="M111.319,417.364H100.93v-14.5a18.508,18.508,0,0,0-37,0v14.5H53.51v-14.5a28.928,28.928,0,0,1,57.84,0Zm-8.865-1.555h7.31v-12.94a27.373,27.373,0,0,0-54.73,0v12.94h7.31v-12.94a20.063,20.063,0,0,1,40.11,0Z" transform="translate(-51.162 118.163)" fill="#263238"/>
      <path id="Path_1284" data-name="Path 1284" d="M77.407,440.278H72.321a.778.778,0,0,1-.778-.778v-13.22a7.768,7.768,0,1,1,6.641,0v13.36A.778.778,0,0,1,77.407,440.278Zm-4.23-1.555h3.53v-13.08a.793.793,0,0,1,.5-.731,6.221,6.221,0,1,0-4.526,0,.793.793,0,0,1,.5.731Z" transform="translate(-43.627 138.641)" fill="#263238"/>
    </g>
    <g id="freepik--Plants--inject-7" transform="translate(20.061 29.846)">
      <path id="Path_1285" data-name="Path 1285" d="M47.545,358.772c5.49-3,13.826-14.246,13.826-14.262s-9.083-3.235-9.689-3.375c-6.952-1.555-21.292-.342-25.289,6.563a9.425,9.425,0,0,0,4.666,13.235C36.223,363.251,42.879,361.307,47.545,358.772Z" transform="translate(-13.843 146.919)" fill="#919191"/>
      <path id="Path_1286" data-name="Path 1286" d="M86.622,436.414c4.324-4.168,9.129-16.253,9.5-17.217a168.263,168.263,0,0,0,21.214,6.859c4.2,1.089,8.461,2.053,12.738,2.955-2.022-.124-3.826-.218-4.075-.2-7.108.373-20.638,5.288-22.676,13a9.44,9.44,0,0,0,8.041,11.525c5.552.887,11.462-2.753,15.3-6.439s8.181-14,9.332-16.688c1.649.327,3.282.684,4.93,1,7.916,1.555,15.817,3.111,23.516,4.821,2.722.607,5.366,1.306,8.025,1.991-1.789-.109-3.3-.187-3.53-.171-7.123.373-20.638,5.288-22.676,13a9.441,9.441,0,0,0,8.025,11.525c5.568.886,11.478-2.753,15.3-6.439s7.776-12.971,9.1-16.206c2.691.793,5.4,1.555,7.979,2.457,1.742.653,3.468,1.151,5.195,1.9l5.1,2.084c3.188,1.446,6.5,2.908,9.58,4.4,2.146,1.011,4.168,2.022,6.221,3.033-2.691-.638-7.994-1.773-8.445-1.82-7.092-.7-21.2,2.115-24.387,9.425a9.44,9.44,0,0,0,6.221,12.613c5.366,1.711,11.758-.98,16.1-4.044,4.79-3.391,11.167-14.137,11.944-15.553,3.39,1.68,6.657,3.359,9.72,4.977,6.781,3.577,12.738,6.936,17.73,9.845l3.2-4.137c-5.241-2.908-11.54-6.221-18.772-9.907-3.422-1.726-7.123-3.5-10.887-5.288a100.694,100.694,0,0,0,2.628-11.758c6-.513,16.5-5.6,17.854-6.221,1.9,3.266,3.7,6.47,5.366,9.518,3.484,6.361,6.454,12.147,8.943,17.108l3.468-4.479c-2.38-4.479-5.148-9.518-8.29-14.993-1.913-3.328-4.013-6.859-6.221-10.451,1.166-.98,10.654-9.161,13.142-14.464,2.255-4.821,3.795-11.587,1.166-16.564a9.441,9.441,0,0,0-13.5-3.888c-6.641,4.417-6.936,18.8-5.008,25.662.124.4,1.851,4.666,2.986,7.31-.9-1.462-1.773-2.893-2.722-4.386-1.851-2.971-3.795-5.879-5.879-9.021l-3.313-4.339c-1.042-1.555-2.333-3-3.5-4.51-2.768-3.468-5.754-6.843-8.849-10.171,2.6-1.633,11.742-7.559,14.713-12.007s5.506-10.887,3.655-16.19a9.441,9.441,0,0,0-12.753-5.894c-7.232,3.359-9.7,17.543-8.834,24.6,0,.451,1.26,5.443,1.96,8.181-1.866-1.991-3.717-3.981-5.677-5.926-5.646-5.63-11.54-11.136-17.388-16.672l-5.335-5.1c.933-.575,11.944-7.4,15.273-12.364,2.955-4.433,5.506-10.887,3.655-16.206a9.425,9.425,0,0,0-12.753-5.879c-7.232,3.359-9.7,17.528-8.834,24.6,0,.529,1.8,7.776,2.333,9.534-3.9-3.764-7.776-7.527-11.416-11.416a164.1,164.1,0,0,1-13.826-16.548c.435-.264,11.96-7.325,15.366-12.442,2.971-4.417,5.506-10.887,3.655-16.19a9.425,9.425,0,0,0-12.753-5.879c-7.232,3.359-9.7,17.528-8.818,24.589,0,.56,1.929,8.305,2.364,9.674-.233-.327-.529-.653-.762-1a122.072,122.072,0,0,1-10.638-18.819c-1.7-3.608-3.111-7.154-4.4-10.638,2.286-1.089,12.644-6.221,16.221-10.467s6.672-10.2,5.412-15.693a9.425,9.425,0,0,0-12.022-7.247c-7.559,2.551-11.571,16.361-11.478,23.484,0,.389.5,4.324.886,7.17-.56-1.555-1.166-3.188-1.68-4.666-1.929-5.832-3.344-11.229-4.541-15.895-.669-2.706-1.229-5.163-1.711-7.465,1.68-2.255,8.336-11.369,9.518-16.688s1.213-12.131-2.426-16.439a9.441,9.441,0,0,0-14-.887c-5.537,5.739-2.737,19.861.638,26.128.28.544,5.8,8.507,5.894,8.4l.109-.14c.42,2.24.9,4.666,1.555,7.216,1.12,4.79,2.411,10.187,4.215,15.973a167.477,167.477,0,0,0,6.719,18.368,122.71,122.71,0,0,0,10.358,19.285l.155.218c-1.82-1.478-7.061-5.4-7.5-5.646-6.128-3.608-20.125-6.968-26.082-1.664a9.44,9.44,0,0,0,.342,14c4.153,3.795,11.089,4.028,16.315,3.111,5.91-1.073,16.579-8.523,17.419-9.114a169.842,169.842,0,0,0,13.889,17.388c2.908,3.219,5.941,6.361,9,9.487-1.555-1.213-3.111-2.286-3.282-2.426-6.143-3.608-20.125-6.968-26.082-1.649a9.441,9.441,0,0,0,.327,14c4.153,3.795,11.089,4.028,16.33,3.11s14.526-7.139,16.952-8.8c1.182,1.2,2.364,2.4,3.562,3.562,5.739,5.677,11.493,11.291,16.952,16.984,1.944,2.006,3.764,4.059,5.6,6.1-1.431-1.073-2.66-1.975-2.862-2.1-6.143-3.593-20.125-6.968-26.082-1.649a9.441,9.441,0,0,0,.342,14c4.153,3.795,11.089,4.028,16.315,3.111s13.64-6.532,16.517-8.492c1.82,2.131,3.639,4.277,5.3,6.439,1.1,1.555,2.271,2.877,3.3,4.448l3.111,4.557c1.866,2.955,3.81,6,5.568,8.943,1.229,2.037,2.364,4,3.515,5.972-1.9-2.022-5.692-5.894-6.05-6.221a36.611,36.611,0,0,0-17.108-7.045,11.7,11.7,0,0,0-1.726-1.182,9.44,9.44,0,0,0-13.406,4.215c-3.111,7.341,4.666,19.5,9.985,24.153.311.264,4.106,2.862,6.517,4.448L208.4,446.6c-3.111-1.446-6.408-2.8-9.876-4.277l-5.148-1.96c-1.7-.7-3.577-1.213-5.4-1.835-4.23-1.353-8.57-2.52-12.986-3.593,1.26-2.8,5.615-12.784,5.646-18.134s-1.415-12.1-5.894-15.553a9.409,9.409,0,0,0-13.873,2.131c-4.184,6.781,1.555,19.97,6.221,25.382.28.342,4.044,3.857,6.221,5.739-2.66-.622-5.3-1.26-8.01-1.8-7.776-1.555-15.77-2.939-23.7-4.324-2.426-.42-4.837-.871-7.263-1.306.467-1,5.879-12.753,5.926-18.741,0-5.319-1.415-12.1-5.894-15.553a9.441,9.441,0,0,0-13.889,2.115c-4.184,6.8,1.555,19.985,6.221,25.4.358.4,5.77,5.459,7.216,6.672-5.335-.98-10.638-2.006-15.817-3.219a164.471,164.471,0,0,1-20.669-6.221c.218-.467,5.941-12.722,5.972-18.85,0-5.319-1.415-12.1-5.894-15.553a9.425,9.425,0,0,0-14.137,2.3c-4.184,6.8,1.555,19.97,6.221,25.382.358.435,6.221,5.848,7.31,6.765-.389-.156-.809-.264-1.2-.4a123.917,123.917,0,0,1-19.239-9.829c-3.406-2.084-6.548-4.261-9.549-6.439,1.306-2.177,7.123-12.178,7.776-17.683s0-12.193-4.137-16.081a9.425,9.425,0,0,0-14,.591c-4.915,6.221-.638,20.032,3.375,25.911.218.327,2.8,3.328,4.666,5.506-1.338-1.011-2.737-2.022-4.013-3.017-4.666-3.7-8.881-7.388-12.442-10.685-2.053-1.9-3.873-3.639-5.552-5.3.156-2.8.669-14.075-1.26-19.176S35.64,350.174,30.243,348.6a9.44,9.44,0,0,0-12.193,7C16.6,363.456,26.728,373.674,33,377.049c.544.3,9.549,3.888,9.549,3.748v-.171c1.555,1.555,3.313,3.344,5.226,5.195,3.562,3.375,7.621,7.17,12.318,11a166.8,166.8,0,0,0,15.739,11.618A121.725,121.725,0,0,0,95.1,418.808l.249.093c-2.317-.218-8.849-.607-9.332-.591-7.108.389-20.623,5.3-22.66,13.018a9.441,9.441,0,0,0,8.025,11.525C76.886,443.739,82.8,440.1,86.622,436.414Z" transform="translate(-17.91 90.319)" fill="#919191"/>
      <path id="Path_1287" data-name="Path 1287" d="M109.837,287.818c.124,0-5.8-7.776-6.221-8.15-4.977-5.1-17.574-12.038-24.729-8.492a9.44,9.44,0,0,0-3.375,13.64c3,4.759,9.627,6.812,14.931,7.263C96.633,292.608,109.837,287.818,109.837,287.818Z" transform="translate(13.168 107.868)" fill="#919191"/>
      <path id="Path_1288" data-name="Path 1288" d="M465.226,358.772c-5.49-3-13.826-14.246-13.826-14.262s9.083-3.235,9.689-3.375c6.952-1.555,21.292-.342,25.289,6.563a9.425,9.425,0,0,1-4.666,13.235C476.549,363.251,469.892,361.307,465.226,358.772Z" transform="translate(222.792 146.919)" fill="#919191"/>
      <path id="Path_1289" data-name="Path 1289" d="M497.775,436.442c-4.324-4.168-9.114-16.253-9.5-17.217a167.436,167.436,0,0,1-21.261,6.859c-4.2,1.089-8.461,2.053-12.738,2.955,2.022-.124,3.826-.218,4.075-.2,7.108.373,20.638,5.288,22.676,13A9.44,9.44,0,0,1,473,453.363c-5.568.886-11.478-2.753-15.3-6.439s-8.2-14-9.332-16.688c-1.649.327-3.282.684-4.93,1-7.916,1.555-15.817,3.11-23.516,4.821-2.722.607-5.366,1.306-8.025,1.991,1.789-.109,3.3-.187,3.53-.171,7.123.373,20.638,5.288,22.676,13a9.425,9.425,0,0,1-8.025,11.524c-5.568.887-11.478-2.753-15.3-6.439s-7.776-12.971-9.1-16.206c-2.691.793-5.4,1.555-7.979,2.457-1.742.653-3.468,1.151-5.195,1.9l-5.1,2.084c-3.188,1.446-6.485,2.908-9.565,4.4-2.162,1.011-4.184,2.022-6.221,3.033,2.691-.638,7.994-1.773,8.461-1.82,7.076-.7,21.183,2.115,24.371,9.425a9.425,9.425,0,0,1-6.221,12.613c-5.366,1.711-11.758-.98-16.1-4.044-4.79-3.39-11.167-14.137-11.944-15.553-3.39,1.68-6.656,3.359-9.72,4.977-6.781,3.577-12.738,6.937-17.73,9.845l-3.2-4.137c5.241-2.908,11.54-6.221,18.772-9.907,3.422-1.726,7.123-3.5,10.887-5.288a100.667,100.667,0,0,1-2.628-11.758c-6-.513-16.5-5.6-17.854-6.221-1.9,3.266-3.7,6.47-5.366,9.518-3.484,6.361-6.454,12.147-8.943,17.108l-3.468-4.479c2.38-4.479,5.148-9.518,8.289-14.993,1.913-3.328,4.013-6.859,6.221-10.451-1.182-.98-10.669-9.161-13.158-14.464-2.255-4.821-3.795-11.587-1.166-16.564a9.441,9.441,0,0,1,13.5-3.888c6.641,4.417,6.936,18.8,5.008,25.662-.124.4-1.851,4.666-2.986,7.31.918-1.462,1.773-2.893,2.722-4.386,1.866-2.971,3.795-5.879,5.879-9.021l3.2-4.479c1.042-1.555,2.333-3,3.5-4.51,2.768-3.468,5.755-6.843,8.849-10.171-2.6-1.633-11.742-7.559-14.713-12.007s-5.506-10.887-3.655-16.19a9.44,9.44,0,0,1,12.753-5.894c7.232,3.359,9.7,17.543,8.834,24.6,0,.451-1.26,5.443-1.96,8.181,1.866-1.991,3.717-3.982,5.677-5.926,5.646-5.63,11.54-11.136,17.388-16.672l5.335-5.1c-.933-.575-11.944-7.4-15.273-12.364-2.955-4.432-5.506-10.887-3.655-16.206a9.425,9.425,0,0,1,12.753-5.879c7.232,3.359,9.7,17.528,8.834,24.6-.078.529-1.8,7.776-2.333,9.534,3.9-3.764,7.776-7.527,11.416-11.416a164.1,164.1,0,0,0,13.826-16.548c-.435-.264-11.96-7.325-15.366-12.442-2.971-4.417-5.506-10.887-3.655-16.19a9.425,9.425,0,0,1,12.753-5.879c7.232,3.359,9.7,17.528,8.818,24.589,0,.56-1.928,8.305-2.364,9.674.233-.327.529-.653.762-1A122.079,122.079,0,0,0,437.6,316.608c1.7-3.608,3.111-7.154,4.4-10.638-2.271-1.089-12.644-6.221-16.221-10.467s-6.672-10.2-5.412-15.693a9.425,9.425,0,0,1,12.022-7.248c7.559,2.551,11.571,16.361,11.478,23.485,0,.389-.482,4.324-.887,7.17.56-1.555,1.182-3.188,1.68-4.666,1.929-5.723,3.344-11.073,4.541-15.833.669-2.706,1.229-5.163,1.711-7.465-1.68-2.255-8.321-11.369-9.518-16.688s-1.213-12.131,2.426-16.439a9.44,9.44,0,0,1,14-.887c5.537,5.739,2.737,19.861-.622,26.128-.3.544-5.817,8.507-5.91,8.4l-.093-.14c-.435,2.24-.918,4.666-1.555,7.216-1.1,4.79-2.411,10.187-4.215,15.973a167.486,167.486,0,0,1-6.719,18.368,122.708,122.708,0,0,1-10.358,19.285l-.156.218c1.835-1.478,7.061-5.4,7.5-5.646,6.143-3.608,20.125-6.968,26.082-1.664a9.425,9.425,0,0,1-.342,14c-4.153,3.795-11.089,4.028-16.315,3.111-5.91-1.073-16.579-8.523-17.419-9.114a169.84,169.84,0,0,1-13.9,17.434c-2.908,3.219-5.926,6.361-9,9.487,1.555-1.213,3.11-2.286,3.282-2.426,6.143-3.608,20.141-6.968,26.1-1.649a9.456,9.456,0,0,1-.342,14c-4.153,3.795-11.089,4.028-16.315,3.111s-14.542-7.139-16.968-8.8c-1.182,1.2-2.364,2.4-3.562,3.562-5.739,5.677-11.493,11.291-16.952,16.984-1.929,2.006-3.764,4.059-5.6,6.1,1.446-1.073,2.659-1.975,2.862-2.1,6.143-3.593,20.125-6.968,26.082-1.649a9.425,9.425,0,0,1-.342,14c-4.153,3.795-11.089,4.028-16.315,3.111s-13.64-6.532-16.517-8.492c-1.82,2.131-3.639,4.277-5.3,6.439-1.1,1.555-2.271,2.877-3.3,4.448l-3.111,4.557c-1.866,2.955-3.81,6-5.568,8.943-1.229,2.037-2.364,4-3.515,5.972,1.9-2.022,5.692-5.894,6.05-6.221a36.611,36.611,0,0,1,17.108-7.045,11.7,11.7,0,0,1,1.726-1.182,9.441,9.441,0,0,1,13.406,4.215c3.111,7.341-4.588,19.5-9.985,24.153-.311.264-4.09,2.862-6.517,4.448l4.666-2.162c3.188-1.446,6.408-2.8,9.876-4.277l5.148-1.96c1.7-.7,3.593-1.213,5.4-1.835,4.23-1.353,8.585-2.52,12.987-3.593-1.26-2.8-5.615-12.784-5.646-18.134s1.415-12.1,5.894-15.553a9.44,9.44,0,0,1,13.888,2.131c4.168,6.781-1.555,19.97-6.221,25.382-.28.342-4.044,3.857-6.143,5.739,2.659-.622,5.3-1.26,8.01-1.8,7.776-1.555,15.77-2.939,23.7-4.324,2.426-.42,4.837-.871,7.263-1.306-.467-1-5.879-12.753-5.91-18.741,0-5.319,1.4-12.1,5.879-15.553a9.44,9.44,0,0,1,13.889,2.115c4.184,6.8-1.555,19.985-6.221,25.4-.358.4-5.77,5.459-7.216,6.672,5.335-.98,10.638-2.006,15.833-3.219a164.977,164.977,0,0,0,20.654-6.221c-.218-.467-5.941-12.722-5.972-18.85,0-5.319,1.415-12.1,5.894-15.553a9.44,9.44,0,0,1,13.888,2.131c4.168,6.8-1.555,19.97-6.221,25.382-.358.435-6.221,5.848-7.31,6.765.389-.156.809-.264,1.2-.4a123.221,123.221,0,0,0,19.239-9.829c3.406-2.084,6.548-4.261,9.549-6.439-1.306-2.177-7.123-12.178-7.776-17.683s0-12.193,4.137-16.081a9.44,9.44,0,0,1,14,.591c4.9,6.221.622,20.032-3.39,25.911-.218.327-2.784,3.328-4.666,5.506,1.338-1.011,2.737-2.022,4.013-3.017,4.759-3.7,8.881-7.388,12.52-10.685,2.037-1.9,3.857-3.639,5.537-5.3-.156-2.8-.669-14.075,1.26-19.176S548.508,350,553.9,348.429a9.441,9.441,0,0,1,12.193,6.983c1.446,7.854-8.678,18.072-14.946,21.447-.544.3-9.549,3.888-9.549,3.748v-.171c-1.555,1.555-3.3,3.344-5.226,5.195-3.562,3.375-7.621,7.17-12.318,11a166.79,166.79,0,0,1-15.739,11.618,121.727,121.727,0,0,1-19.27,10.374l-.249.093c2.333-.218,8.849-.607,9.332-.591,7.108.389,20.623,5.3,22.66,13.018a9.441,9.441,0,0,1-8.025,11.525C507.449,443.767,501.617,440.128,497.775,436.442Z" transform="translate(155.234 90.291)" fill="#919191"/>
      <path id="Path_1290" data-name="Path 1290" d="M402.9,287.818c-.14,0,5.786-7.776,6.221-8.15,4.977-5.1,17.575-12.038,24.729-8.492a9.44,9.44,0,0,1,3.422,13.64c-3,4.759-9.627,6.812-14.915,7.263C416.058,292.608,402.9,287.818,402.9,287.818Z" transform="translate(195.86 107.868)" fill="#919191"/>
      <path id="Path_1291" data-name="Path 1291" d="M306.023,71.262c-4.977,3.764-18.663,6.75-18.663,6.75s.778-9.612.9-10.218c1.478-6.968,8.43-19.565,16.377-20.374a9.44,9.44,0,0,1,10.156,9.72C314.795,62.77,310.254,68.043,306.023,71.262Z" transform="translate(131.706 -15.852)" fill="#919191"/>
      <path id="Path_1292" data-name="Path 1292" d="M373.952,123.084c-5.568,2.224-18.57,1.633-19.6,1.555A166.244,166.244,0,0,1,351.9,146.8c-.731,4.277-1.555,8.554-2.535,12.831a34.08,34.08,0,0,1,1.555-3.795c3.266-6.33,13.313-16.641,21.167-15.335a9.44,9.44,0,0,1,7.216,12.053c-1.555,5.428-7.216,9.332-12.147,11.307s-16.113,1.726-19.036,1.555c-.373,1.633-.731,3.282-1.12,4.915-1.82,7.776-3.686,15.677-5.257,23.329-.56,2.737-1.011,5.443-1.478,8.15.638-1.68,1.182-3.111,1.291-3.3,3.266-6.33,13.3-16.641,21.167-15.335a9.441,9.441,0,0,1,7.216,12.053c-1.478,5.428-7.216,9.332-12.162,11.307s-15.008,1.757-18.508,1.555c-.389,2.784-.778,5.583-1.026,8.29-.14,1.866-.389,3.639-.42,5.506s-.124,3.7-.187,5.506c0,3.515,0,7.123.078,10.545,0,2.38.14,4.666.218,6.937.529-2.722,1.664-8.025,1.8-8.461,2.271-6.75,10.622-18.461,18.663-18.368a9.441,9.441,0,0,1,8.958,10.887c-.638,5.6-5.723,10.311-10.3,13.018-5.055,2.986-17.466,4.37-19.021,4.541.14,3.779.327,7.45.544,10.887.482,7.652,1.089,14.464,1.7,20.218l-5.086,1.229c-.5-5.972-1-13.111-1.322-21.183-.171-3.826-.264-7.932-.327-12.147a101.956,101.956,0,0,1-11.8-2.426c-2.939,5.257-11.9,12.738-13.049,13.7,2.193,3.111,4.37,6.034,6.47,8.8,4.37,5.786,8.43,10.887,11.976,15.195l-5.506,1.322c-3.111-4.013-6.579-8.6-10.265-13.717-2.255-3.111-4.666-6.47-6.983-9.938-1.384.653-12.722,5.957-18.663,6.05-5.319,0-12.115-1.306-15.553-5.754a9.44,9.44,0,0,1,1.991-13.9c6.765-4.246,20,1.4,25.444,5.972.327.28,3.5,3.593,5.459,5.723-.964-1.431-1.913-2.8-2.893-4.277-1.944-2.924-3.795-5.879-5.8-9.067l-2.784-4.759c-.949-1.555-1.773-3.344-2.675-5.039-2.006-3.95-3.857-8.056-5.63-12.24-2.551,1.7-11.711,7.59-16.984,8.476s-12.178.56-16.268-3.313a9.44,9.44,0,0,1-.14-14c6.034-5.226,19.97-1.649,26.066,2.053.373.218,4.448,3.375,6.641,5.148-1.042-2.535-2.084-5.039-3.111-7.621-2.815-7.45-5.428-15.1-8.056-22.707-.809-2.317-1.649-4.666-2.473-6.952-.9.607-11.649,7.854-17.543,8.849-5.241.887-12.178.544-16.268-3.313a9.456,9.456,0,0,1-.14-14c6.034-5.21,19.97-1.649,26.066,2.053.451.28,6.3,4.821,7.776,6.05-1.82-5.117-3.67-10.187-5.708-15.1a167.075,167.075,0,0,0-9.409-19.394c-.42.28-11.6,7.885-17.637,8.912-5.257.887-12.178.544-16.284-3.313a9.472,9.472,0,0,1-.124-14c6.034-5.21,19.97-1.649,26.066,2.053.467.3,6.765,5.179,7.776,6.143-.2-.358-.389-.762-.591-1.12a121.4,121.4,0,0,0-12.8-17.419c-2.6-3.017-5.241-5.77-7.885-8.383-1.929,1.555-10.887,8.989-16.206,10.5s-12.038,1.9-16.532-1.555a9.425,9.425,0,0,1-1.68-14c5.428-5.863,19.674-3.841,26.128-.824.358.156,3.733,2.208,6.221,3.748-1.2-1.166-2.426-2.38-3.608-3.468-4.417-4.106-8.725-7.59-12.567-10.638-2.193-1.726-4.215-3.235-6.112-4.666-2.737.622-13.8,2.924-19.13,1.835s-11.556-3.873-14-8.958a9.44,9.44,0,0,1,4.946-13.142c7.512-2.691,19.223,5.661,23.562,11.307.373.482,5.381,8.787,5.226,8.818h-.156q2.768,1.944,5.972,4.308c3.9,2.986,8.29,6.377,12.815,10.4a168.286,168.286,0,0,1,14,13.671,122.862,122.862,0,0,1,13.282,17.543,2.061,2.061,0,0,0,.124.218c-.591-2.255-2.022-8.632-2.069-9.129-.778-7.092,1.9-21.229,9.192-24.48a9.44,9.44,0,0,1,12.66,6.081c1.773,5.35-.871,11.758-3.888,16.144-3.422,4.93-14.588,11.6-15.553,12.147a164.981,164.981,0,0,1,10.187,19.83c1.742,3.966,3.375,8.01,4.961,12.1-.451-1.975-.84-3.733-.855-4-.778-7.076,1.913-21.214,9.192-24.464a9.441,9.441,0,0,1,12.66,6.081c1.773,5.35-.871,11.758-3.888,16.144s-12.442,10.327-14.993,11.851c.591,1.555,1.2,3.111,1.789,4.666,2.815,7.543,5.583,15.1,8.523,22.427,1.042,2.582,2.146,5.086,3.25,7.605-.389-1.757-.7-3.235-.731-3.468-.762-7.076,1.913-21.214,9.192-24.464a9.44,9.44,0,0,1,12.675,6.081c1.758,5.335-.871,11.758-3.9,16.128s-11.556,9.752-14.526,11.571c1.2,2.535,2.411,5.086,3.7,7.5.918,1.555,1.68,3.235,2.691,4.821s1.929,3.111,2.877,4.666c1.944,2.924,3.919,5.941,5.879,8.741,1.353,1.96,2.675,3.81,4.013,5.661-1.073-2.551-3.111-7.605-3.111-8.056a36.72,36.72,0,0,1,.591-18.477,10.482,10.482,0,0,1-.358-2.069,9.425,9.425,0,0,1,9.332-10.482c7.979.187,15.91,12.193,17.932,19.021.124.389.933,4.915,1.384,7.776v-5.163c0-3.515.078-7.014.156-10.762q.156-2.722.327-5.506c0-1.835.358-3.779.544-5.677.5-4.417,1.229-8.865,2.053-13.313-3.111,0-14-.14-18.85-2.3s-10.451-6.221-11.742-11.742a9.425,9.425,0,0,1,7.636-11.789c7.916-1.026,17.575,9.643,20.607,16.081.187.4,1.851,5.272,2.706,7.963.529-2.675,1.026-5.35,1.649-8.041,1.757-7.776,3.795-15.553,5.786-23.329.622-2.38,1.2-4.775,1.789-7.154-1.089,0-14,.124-19.519-2.3-4.852-2.162-10.451-6.221-11.742-11.742a9.44,9.44,0,0,1,7.652-11.789c7.9-1.026,17.559,9.643,20.592,16.081.233.482,2.613,7.5,3.111,9.332,1.306-5.272,2.551-10.514,3.562-15.755a167.328,167.328,0,0,0,2.862-21.369c-.513,0-14,.187-19.643-2.3-4.868-2.146-10.451-6.221-11.742-11.742a9.44,9.44,0,0,1,7.652-11.773c7.9-1.026,17.559,9.627,20.592,16.081.249.5,2.8,8.041,3.111,9.44,0-.42.109-.84.124-1.26a122.255,122.255,0,0,0-1.058-21.587c-.5-3.95-1.2-7.776-1.96-11.338-2.5.3-14,1.555-19.3-.187s-11.089-5.07-12.971-10.374a9.44,9.44,0,0,1,6.3-12.551c7.776-1.9,18.523,7.652,22.256,13.717.2.327,1.882,3.919,3.111,6.548-.373-1.555-.715-3.328-1.1-4.9-1.431-5.863-3.111-11.136-4.666-15.8-.887-2.644-1.742-5.024-2.551-7.232-2.628-1-13.111-5.163-16.968-9.021s-7.5-9.612-6.719-15.179a9.44,9.44,0,0,1,11.385-8.243c7.776,1.9,12.909,15.319,13.406,22.427,0,.607-.373,10.3-.5,10.249h-.156c.824,2.115,1.7,4.386,2.582,6.89,1.555,4.666,3.406,9.907,4.977,15.755a170.113,170.113,0,0,1,4.137,19.114,123.861,123.861,0,0,1,1.555,21.774,1.367,1.367,0,0,1,0,.264c.762-2.208,3.111-8.321,3.328-8.772,3.266-6.33,13.3-16.641,21.152-15.335a9.441,9.441,0,0,1,7.216,12.053C384.621,117.143,378.882,121.093,373.952,123.084Z" transform="translate(68.599 -27.113)" fill="#919191"/>
      <path id="Path_1293" data-name="Path 1293" d="M213.806,99.216c-.109.109-4.666-8.445-4.884-9.021-2.613-6.625-3.764-20.965,2.411-26.02a9.425,9.425,0,0,1,13.811,2.52c3.111,4.666,2.271,11.571.5,16.595C223.573,89.231,213.806,99.216,213.806,99.216Z" transform="translate(86.982 -7.631)" fill="#919191"/>
    </g>
    <g id="freepik--Device--inject-7" transform="translate(164.171 121.804)">
      <path id="Path_1294" data-name="Path 1294" d="M509.955,129.674V109.58H496.673L128.2,478.038V511.43Z" transform="translate(-100.781 -73.28)" fill="#fff"/>
      <path id="Path_1295" data-name="Path 1295" d="M128.2,214.172V345.078l235.514-235.5H232.792Z" transform="translate(-100.781 -73.28)" fill="#fff"/>
      <path id="Path_1296" data-name="Path 1296" d="M383.857,501.526,440.686,444.7V313.79L252.95,501.526Z" transform="translate(-31.511 40.111)" fill="#fff"/>
      <rect id="Rectangle_723" data-name="Rectangle 723" width="436.594" height="577.937" rx="10.21" fill="#263238"/>
      <rect id="Rectangle_724" data-name="Rectangle 724" width="381.755" height="505.352" transform="translate(27.419 36.3)" fill="#69be96"/>
      <path id="Path_1297" data-name="Path 1297" d="M110.57,174.843V336.529L360.859,86.24H199.173Z" transform="translate(-110.57 -86.24)" fill="#fff" opacity="0.2"/>
      <path id="Path_1298" data-name="Path 1298" d="M547.164,105.416v-5.07A14.106,14.106,0,0,0,533.058,86.24h-7.963L110.57,500.765V542.01Z" transform="translate(-110.57 -86.24)" fill="#fff" opacity="0.2"/>
      <path id="Path_1299" data-name="Path 1299" d="M459.588,496.535V334.85L268.29,526.132h161.7Z" transform="translate(-22.994 51.805)" fill="#fff" opacity="0.2"/>
      <rect id="Rectangle_725" data-name="Rectangle 725" width="179.027" height="30.359" transform="translate(128.776 235.047)" fill="#fff"/>
      <path id="Path_1300" data-name="Path 1300" d="M372.69,268.784H193.648a.778.778,0,0,1-.778-.778V237.648a.793.793,0,0,1,.778-.778H372.69a.793.793,0,0,1,.778.778v30.359a.778.778,0,0,1-.778.778Zm-178.265-1.555h177.5v-28.8h-177.5Z" transform="translate(-64.872 -2.6)" fill="#263238"/>
      <rect id="Rectangle_726" data-name="Rectangle 726" width="179.027" height="30.359" transform="translate(128.776 291.581)" fill="#fff"/>
      <path id="Path_1301" data-name="Path 1301" d="M372.69,305.15H193.648a.793.793,0,0,1-.778-.778V274a.793.793,0,0,1,.778-.778H372.69a.793.793,0,0,1,.778.778v30.374a.793.793,0,0,1-.778.778Zm-178.265-1.555h177.5V274.775h-177.5Z" transform="translate(-64.872 17.584)" fill="#263238"/>
      <rect id="Rectangle_727" data-name="Rectangle 727" width="97.437" height="30.359" rx="4.84" transform="translate(169.571 348.488)" fill="#263238"/>
      <path id="Path_1302" data-name="Path 1302" d="M309.788,341.719H227.358a8.321,8.321,0,0,1-8.258-8.29v-15.3a8.321,8.321,0,0,1,8.321-8.305H309.85a8.305,8.305,0,0,1,8.305,8.305v15.3a8.321,8.321,0,0,1-8.367,8.29ZM227.358,311.36a6.765,6.765,0,0,0-6.765,6.75v15.319a6.765,6.765,0,0,0,6.765,6.75h82.429a6.75,6.75,0,0,0,6.75-6.75v-15.3a6.75,6.75,0,0,0-6.75-6.75Z" transform="translate(-50.307 37.906)" fill="#263238"/>
      <path id="Path_1303" data-name="Path 1303" d="M292.689,186.841A30.67,30.67,0,1,1,283.728,165a30.794,30.794,0,0,1,8.961,21.836Z" transform="translate(-43.644 -47.505)" fill="#fff"/>
      <path id="Path_1304" data-name="Path 1304" d="M262.19,218.665a31.572,31.572,0,1,1,19.472-6.734,31.572,31.572,0,0,1-19.472,6.734Zm0-61.573a30,30,0,0,0-18.523,53.61,29.55,29.55,0,0,0,18.554,6.408,30.017,30.017,0,0,0,0-60.018Z" transform="translate(-43.924 -47.773)" fill="#263238"/>
      <circle id="Ellipse_36" data-name="Ellipse 36" cx="12.862" cy="12.862" r="12.862" transform="translate(200.065 134.523) rotate(-45)" fill="#263238"/>
      <path id="Path_1305" data-name="Path 1305" d="M255.77,191.239a13.64,13.64,0,1,1,13.64-13.64A13.64,13.64,0,0,1,255.77,191.239Zm0-25.709a12.038,12.038,0,1,1,0,.047Z" transform="translate(-37.519 -43.085)" fill="#263238"/>
      <path id="Path_1306" data-name="Path 1306" d="M276.706,196.842a30.7,30.7,0,0,1-38.026,0,19.472,19.472,0,0,1,38.026,0Z" transform="translate(-39.435 -33.306)" fill="#263238"/>
      <path id="Path_1307" data-name="Path 1307" d="M257.979,204.5a31.543,31.543,0,0,1-19.506-6.752.762.762,0,0,1-.277-.76,20.218,20.218,0,0,1,39.535,0,.747.747,0,0,1-.264.762A31.588,31.588,0,0,1,257.979,204.5Zm-18.165-7.667a29.55,29.55,0,0,0,18.165,6.112,30.017,30.017,0,0,0,18.134-6.112,18.663,18.663,0,0,0-36.3,0Z" transform="translate(-39.713 -33.612)" fill="#263238"/>
      <path id="Path_1308" data-name="Path 1308" d="M239,223.232V209.81h2.457v11.727h3.25v1.7Z" transform="translate(-39.257 -17.626)" fill="#263238"/>
      <path id="Path_1309" data-name="Path 1309" d="M247.148,223.513a4.4,4.4,0,0,1-2.286-.529,2.939,2.939,0,0,1-1.2-1.555,6.733,6.733,0,0,1-.373-2.364v-5.023a6.548,6.548,0,0,1,.373-2.333,2.83,2.83,0,0,1,1.2-1.555,5.35,5.35,0,0,1,4.573,0,2.924,2.924,0,0,1,1.213,1.555,6.547,6.547,0,0,1,.373,2.333v5.039a6.547,6.547,0,0,1-.373,2.333,3.11,3.11,0,0,1-1.213,1.555A4.215,4.215,0,0,1,247.148,223.513Zm0-1.8a1.353,1.353,0,0,0,.9-.264,1.556,1.556,0,0,0,.389-.731,5.2,5.2,0,0,0,.093-1.011v-6.221a4.973,4.973,0,0,0-.093-1.011,1.4,1.4,0,0,0-.389-.7,1.353,1.353,0,0,0-.9-.264,1.337,1.337,0,0,0-.887.264,1.306,1.306,0,0,0-.4.7,4.98,4.98,0,0,0-.093,1.011V219.7a5.2,5.2,0,0,0,.093,1.011,1.291,1.291,0,0,0,.389.731,1.353,1.353,0,0,0,.9.264Z" transform="translate(-36.876 -17.72)" fill="#263238"/>
      <path id="Path_1310" data-name="Path 1310" d="M252.868,223.46a3.593,3.593,0,0,1-2.115-.56,3.266,3.266,0,0,1-1.12-1.555,8.227,8.227,0,0,1-.342-2.457v-4.541a7.776,7.776,0,0,1,.342-2.488A2.877,2.877,0,0,1,250.8,210.3a4.121,4.121,0,0,1,2.317-.56,4.386,4.386,0,0,1,2.177.467,2.582,2.582,0,0,1,1.166,1.337,5.319,5.319,0,0,1,.358,2.115v.684h-2.333v-.762a5.743,5.743,0,0,0-.093-1.1,1.244,1.244,0,0,0-.358-.7,1.649,1.649,0,0,0-1.835,0,1.555,1.555,0,0,0-.358.84,8.25,8.25,0,0,0-.078,1.12v5.63a5.446,5.446,0,0,0,.124,1.2,1.555,1.555,0,0,0,.42.793,1.337,1.337,0,0,0,.9.28,1.291,1.291,0,0,0,.918-.311,1.664,1.664,0,0,0,.435-.824,5.956,5.956,0,0,0,.124-1.26v-1.26h-1.446V216.43H256.9v6.812h-1.555l-.171-1.322a2.815,2.815,0,0,1-.809,1.089A2.333,2.333,0,0,1,252.868,223.46Z" transform="translate(-33.544 -17.667)" fill="#263238"/>
      <path id="Path_1311" data-name="Path 1311" d="M255.42,223.232V209.81h2.457v13.422Z" transform="translate(-30.14 -17.626)" fill="#263238"/>
      <path id="Path_1312" data-name="Path 1312" d="M258.31,223.232V209.81h1.711l3.266,7.652V209.81h2.022v13.422h-1.555l-3.3-8.025v8.025Z" transform="translate(-28.535 -17.626)" fill="#263238"/>
      <path id="Path_1313" data-name="Path 1313" d="M233.628,256.93a3.639,3.639,0,0,1-2.224-.591,2.768,2.768,0,0,1-1.073-1.555,9.531,9.531,0,0,1-.28-2.457v-8.9h1.789V252.4a9.946,9.946,0,0,0,.124,1.555,2.193,2.193,0,0,0,.5,1.12,1.852,1.852,0,0,0,2.348,0,2.193,2.193,0,0,0,.5-1.12,9.95,9.95,0,0,0,.125-1.555V243.43H237.2v8.9a9.534,9.534,0,0,1-.28,2.457,2.892,2.892,0,0,1-1.058,1.555A3.655,3.655,0,0,1,233.628,256.93Z" transform="translate(-44.227 1.042)" fill="#ccc"/>
      <path id="Path_1314" data-name="Path 1314" d="M239.272,257.037a3.515,3.515,0,0,1-1.928-.5,3.111,3.111,0,0,1-1.166-1.384,5.693,5.693,0,0,1-.467-2.037l1.664-.451a6.763,6.763,0,0,0,.218,1.384,2.442,2.442,0,0,0,.575,1.089,1.487,1.487,0,0,0,2.582-1.166,2.379,2.379,0,0,0-.42-1.555,6.86,6.86,0,0,0-1.042-1.12l-2.255-1.991a4.076,4.076,0,0,1-.98-1.26,4.231,4.231,0,0,1-.311-1.7,3.111,3.111,0,0,1,.84-2.3,3.282,3.282,0,0,1,2.317-.809,4.261,4.261,0,0,1,1.4.218,2.3,2.3,0,0,1,1.011.638,3.111,3.111,0,0,1,.638,1.073,5.957,5.957,0,0,1,.327,1.555l-1.555.435a6.98,6.98,0,0,0-.2-1.229,1.641,1.641,0,0,0-2.675-.887,1.447,1.447,0,0,0-.389,1.1,2.161,2.161,0,0,0,.2,1.011,3.017,3.017,0,0,0,.669.809l2.271,1.991a6.749,6.749,0,0,1,1.353,1.555,4.09,4.09,0,0,1,.575,2.177,3.329,3.329,0,0,1-.42,1.711,2.675,2.675,0,0,1-1.135,1.1A3.375,3.375,0,0,1,239.272,257.037Z" transform="translate(-41.084 0.935)" fill="#ccc"/>
      <path id="Path_1315" data-name="Path 1315" d="M241,256.792V243.37h5.195v1.384h-3.328V249.2h2.706v1.369h-2.706v4.93h3.375v1.291Z" transform="translate(-38.147 1.009)" fill="#ccc"/>
      <path id="Path_1316" data-name="Path 1316" d="M245.3,256.793V243.371h2.644a5.738,5.738,0,0,1,2.224.358,2.411,2.411,0,0,1,1.306,1.135,4.4,4.4,0,0,1,.42,2.068,5.692,5.692,0,0,1-.171,1.415,2.675,2.675,0,0,1-.529,1.073,1.928,1.928,0,0,1-.964.638l1.913,6.734h-1.8l-1.757-6.221H247.12v6.221Zm1.866-7.636h.778a3.686,3.686,0,0,0,1.291-.2,1.369,1.369,0,0,0,.731-.684,3.11,3.11,0,0,0,.233-1.337,2.582,2.582,0,0,0-.435-1.7,2.115,2.115,0,0,0-1.711-.529h-.824Z" transform="translate(-35.759 1.007)" fill="#ccc"/>
      <path id="Path_1317" data-name="Path 1317" d="M250.83,256.792V243.37h1.275l3.81,8.912V243.37h1.555v13.422h-1.182l-3.873-9.16v9.16Z" transform="translate(-32.688 1.009)" fill="#ccc"/>
      <path id="Path_1318" data-name="Path 1318" d="M256,256.792l2.846-13.422h1.82l2.877,13.422H261.77l-.622-3.375h-2.737l-.638,3.375Zm2.644-4.666h2.24l-1.12-6.05Z" transform="translate(-29.818 1.009)" fill="#ccc"/>
      <path id="Path_1319" data-name="Path 1319" d="M261.68,256.792l.249-13.422h1.8l2.38,10.887,2.38-10.887h1.82l.249,13.422h-1.555l-.14-9.752-2.193,9.752h-1.058l-2.255-9.752-.156,9.752Z" transform="translate(-26.664 1.009)" fill="#ccc"/>
      <path id="Path_1320" data-name="Path 1320" d="M268.74,256.792V243.37h5.195v1.384h-3.328V249.2h2.706v1.369h-2.706v4.93h3.375v1.291Z" transform="translate(-22.744 1.009)" fill="#ccc"/>
      <path id="Path_1321" data-name="Path 1321" d="M229.29,292.524V279.1h3.328a3.608,3.608,0,0,1,1.929.435,2.519,2.519,0,0,1,1.058,1.275,5.412,5.412,0,0,1,.327,2.006,4.2,4.2,0,0,1-.373,1.835,2.706,2.706,0,0,1-1.089,1.2,3.686,3.686,0,0,1-1.835.42h-1.477v6.221Zm1.866-7.59h.871a3.5,3.5,0,0,0,1.275-.187,1.12,1.12,0,0,0,.669-.638,3.452,3.452,0,0,0,.187-1.275,5.971,5.971,0,0,0-.14-1.478,1.026,1.026,0,0,0-.591-.715,3.765,3.765,0,0,0-1.384-.2h-.887Z" transform="translate(-44.649 20.847)" fill="#ccc"/>
      <path id="Path_1322" data-name="Path 1322" d="M233.53,292.522l2.862-13.422h1.8l2.862,13.422h-1.773l-.607-3.375h-2.737l-.653,3.375Zm2.66-4.666h2.24l-1.135-6.05Z" transform="translate(-42.295 20.849)" fill="#ccc"/>
      <path id="Path_1323" data-name="Path 1323" d="M242.552,292.734a3.515,3.515,0,0,1-1.929-.5,3.111,3.111,0,0,1-1.166-1.369,5.863,5.863,0,0,1-.467-2.053l1.664-.435a7.775,7.775,0,0,0,.218,1.369,2.613,2.613,0,0,0,.575,1.089,1.447,1.447,0,0,0,1.1.42,1.431,1.431,0,0,0,1.1-.4,1.664,1.664,0,0,0,.373-1.166,2.411,2.411,0,0,0-.42-1.478,8.4,8.4,0,0,0-1.042-1.12l-2.255-1.975a3.95,3.95,0,0,1-.98-1.275,4.183,4.183,0,0,1-.327-1.726,2.986,2.986,0,0,1,.855-2.286,3.111,3.111,0,0,1,2.255-.824,4.259,4.259,0,0,1,1.4.218,2.442,2.442,0,0,1,1.011.638,3.111,3.111,0,0,1,.638,1.089,5.382,5.382,0,0,1,.327,1.555l-1.555.435a6.8,6.8,0,0,0-.2-1.213,1.82,1.82,0,0,0-.529-.9,1.789,1.789,0,0,0-2.146,0,1.446,1.446,0,0,0-.389,1.1,2.162,2.162,0,0,0,.2,1.011,2.8,2.8,0,0,0,.669.809l2.271,1.991a7.451,7.451,0,0,1,1.353,1.555,4,4,0,0,1,.575,2.177,3.376,3.376,0,0,1-.42,1.726,2.738,2.738,0,0,1-1.135,1.089,3.375,3.375,0,0,1-1.633.451Z" transform="translate(-39.263 20.792)" fill="#ccc"/>
      <path id="Path_1324" data-name="Path 1324" d="M247.592,292.724a3.547,3.547,0,0,1-1.929-.5,3.111,3.111,0,0,1-1.166-1.369,5.862,5.862,0,0,1-.467-2.053l1.664-.436a7.778,7.778,0,0,0,.218,1.369,2.613,2.613,0,0,0,.575,1.089,1.447,1.447,0,0,0,1.1.42,1.431,1.431,0,0,0,1.1-.4,1.664,1.664,0,0,0,.373-1.166,2.519,2.519,0,0,0-.4-1.478,11.136,11.136,0,0,0-1.042-1.12l-2.255-1.975a3.561,3.561,0,0,1-.98-1.275,3.919,3.919,0,0,1-.327-1.7,2.986,2.986,0,0,1,.855-2.286,3.11,3.11,0,0,1,2.3-.824,4.26,4.26,0,0,1,1.4.218,2.349,2.349,0,0,1,1.011.638,3.375,3.375,0,0,1,.653,1.089,6,6,0,0,1,.311,1.555l-1.555.435a5.648,5.648,0,0,0-.2-1.213,1.789,1.789,0,0,0-.513-.9,1.813,1.813,0,0,0-2.162.031,1.446,1.446,0,0,0-.389,1.1,2.162,2.162,0,0,0,.2,1.011,2.877,2.877,0,0,0,.684.809l2.271,1.991a7.776,7.776,0,0,1,1.338,1.555,4,4,0,0,1,.575,2.177,3.546,3.546,0,0,1-.4,1.726,2.939,2.939,0,0,1-1.135,1.089A3.437,3.437,0,0,1,247.592,292.724Z" transform="translate(-36.464 20.802)" fill="#ccc"/>
      <path id="Path_1325" data-name="Path 1325" d="M251.255,292.522,249,279.1h1.555L252,288.743l1.8-9.6h1.415l1.82,9.658,1.415-9.7h1.555l-2.162,13.422H256.5l-1.882-9.938-1.882,9.938Z" transform="translate(-33.705 20.849)" fill="#ccc"/>
      <path id="Path_1326" data-name="Path 1326" d="M260.531,292.735a3.842,3.842,0,0,1-2.162-.529,2.893,2.893,0,0,1-1.166-1.555,6.889,6.889,0,0,1-.342-2.3v-5.1a6.219,6.219,0,0,1,.358-2.271,2.862,2.862,0,0,1,1.151-1.462,4.012,4.012,0,0,1,2.162-.513,4.074,4.074,0,0,1,2.162.513,2.924,2.924,0,0,1,1.151,1.462,6.563,6.563,0,0,1,.358,2.271v5.086a6.78,6.78,0,0,1-.358,2.286,2.97,2.97,0,0,1-1.151,1.555A3.8,3.8,0,0,1,260.531,292.735Zm0-1.478a1.726,1.726,0,0,0,1.135-.311,1.555,1.555,0,0,0,.513-.855,6.421,6.421,0,0,0,.124-1.306v-5.879a6.22,6.22,0,0,0-.124-1.291,1.447,1.447,0,0,0-.513-.824,2.333,2.333,0,0,0-2.271,0,1.368,1.368,0,0,0-.513.824,5.192,5.192,0,0,0-.14,1.291v5.879a5.43,5.43,0,0,0,.14,1.306,1.462,1.462,0,0,0,.513.855,1.727,1.727,0,0,0,1.135.311Z" transform="translate(-29.341 20.791)" fill="#ccc"/>
      <path id="Path_1327" data-name="Path 1327" d="M262.76,292.523V279.1h2.706a6.051,6.051,0,0,1,2.224.358A2.6,2.6,0,0,1,269,280.594a4.4,4.4,0,0,1,.42,2.069,5.6,5.6,0,0,1-.171,1.415,2.645,2.645,0,0,1-.529,1.089,2.24,2.24,0,0,1-.964.638l1.913,6.719H267.8l-1.757-6.3h-1.353v6.3Zm1.882-7.636h.7a3.437,3.437,0,0,0,1.306-.2,1.307,1.307,0,0,0,.731-.684,3.111,3.111,0,0,0,.218-1.338,2.707,2.707,0,0,0-.42-1.7,2.146,2.146,0,0,0-1.711-.529h-.778Z" transform="translate(-26.064 20.848)" fill="#ccc"/>
      <path id="Path_1328" data-name="Path 1328" d="M268.29,292.524V279.1h2.924a5.242,5.242,0,0,1,2.364.451,2.675,2.675,0,0,1,1.244,1.369,6.034,6.034,0,0,1,.373,2.271v4.946a6.673,6.673,0,0,1-.373,2.4,2.893,2.893,0,0,1-1.213,1.555,4.262,4.262,0,0,1-2.24.5Zm1.882-1.338h1.058a2.162,2.162,0,0,0,1.462-.4,1.773,1.773,0,0,0,.513-1.151,15.544,15.544,0,0,0,.093-1.851v-4.355a8.478,8.478,0,0,0-.124-1.7,1.369,1.369,0,0,0-.591-.933,2.52,2.52,0,0,0-1.4-.311h-1.011Z" transform="translate(-22.994 20.847)" fill="#ccc"/>
      <path id="Path_1329" data-name="Path 1329" d="M239.477,328.933a4.014,4.014,0,0,1-2.022-.467,2.97,2.97,0,0,1-1.229-1.384,5.832,5.832,0,0,1-.467-2.24l2.1-.42a6.86,6.86,0,0,0,.2,1.384,1.851,1.851,0,0,0,.482.918,1.12,1.12,0,0,0,.855.327.98.98,0,0,0,.84-.358,1.555,1.555,0,0,0,.249-.9,2.442,2.442,0,0,0-.4-1.446,6.363,6.363,0,0,0-1.058-1.12l-1.7-1.555A5.49,5.49,0,0,1,236.2,320.3a3.841,3.841,0,0,1-.42-1.866,3.188,3.188,0,0,1,.933-2.457,3.577,3.577,0,0,1,2.535-.855,3.889,3.889,0,0,1,1.555.28,2.629,2.629,0,0,1,1.011.809,3.344,3.344,0,0,1,.544,1.166,6.594,6.594,0,0,1,.233,1.384l-2.084.373a5.958,5.958,0,0,0-.14-1.135,1.555,1.555,0,0,0-.389-.778,1.042,1.042,0,0,0-.793-.28,1.011,1.011,0,0,0-.84.358,1.306,1.306,0,0,0-.3.886,2.069,2.069,0,0,0,.28,1.12,4.293,4.293,0,0,0,.824.9l1.664,1.478a6.783,6.783,0,0,1,1.415,1.633,4.028,4.028,0,0,1,.591,2.255,3.437,3.437,0,0,1-.467,1.8,2.939,2.939,0,0,1-1.182,1.166,3.546,3.546,0,0,1-1.7.389Z" transform="translate(-41.056 40.847)" fill="#e5e5e5"/>
      <path id="Path_1330" data-name="Path 1330" d="M241.2,328.688V315.25h2.411v13.438Z" transform="translate(-38.036 40.921)" fill="#e5e5e5"/>
      <path id="Path_1331" data-name="Path 1331" d="M247.5,328.916a3.5,3.5,0,0,1-2.1-.56,2.955,2.955,0,0,1-1.12-1.555,7.588,7.588,0,0,1-.28-2.551v-4.51a8.4,8.4,0,0,1,.327-2.488A2.877,2.877,0,0,1,245.5,315.7a4.292,4.292,0,0,1,2.317-.544,4.666,4.666,0,0,1,2.193.451,2.722,2.722,0,0,1,1.166,1.338,5.724,5.724,0,0,1,.358,2.115v.7h-2.348v-.762a7.2,7.2,0,0,0,0-1.1,1.275,1.275,0,0,0-.373-.715,1.369,1.369,0,0,0-.887-.233,1.167,1.167,0,0,0-.933.311,1.555,1.555,0,0,0-.373.824,8.6,8.6,0,0,0,0,1.135v5.615a5.568,5.568,0,0,0,.109,1.213,1.415,1.415,0,0,0,.435.793,1.338,1.338,0,0,0,.887.264,1.276,1.276,0,0,0,.918-.3,1.555,1.555,0,0,0,.435-.824,5.081,5.081,0,0,0,.124-1.26v-1.26H248.08V321.9h3.655v6.812h-1.555l-.187-1.338a2.488,2.488,0,0,1-.809,1.089,2.3,2.3,0,0,1-1.68.451Z" transform="translate(-36.486 40.864)" fill="#e5e5e5"/>
      <path id="Path_1332" data-name="Path 1332" d="M250,328.688V315.25h1.711l3.266,7.667V315.25H257v13.438h-1.555l-3.282-8.025v8.025Z" transform="translate(-33.149 40.921)" fill="#e5e5e5"/>
      <path id="Path_1333" data-name="Path 1333" d="M258.49,328.688V315.25h2.348v13.438Z" transform="translate(-28.435 40.921)" fill="#e5e5e5"/>
      <path id="Path_1334" data-name="Path 1334" d="M261.38,328.688V315.25h1.7l3.266,7.667V315.25h2.022v13.438h-1.555l-3.282-8.025v8.025Z" transform="translate(-26.83 40.921)" fill="#e5e5e5"/>
    </g>
    <g id="freepik--Character--inject-7" transform="translate(509.028 241.374)">
      <path id="Path_1335" data-name="Path 1335" d="M369.312,187.828s-1.975,15.553-1.244,17.73,5.179,11.089,5.428,11.82-5.179,5.412-4.184,7.636,6.392,4.93,6.392,4.93S389,245.2,390.728,244.953s8.134-3.686,8.134-3.686l3.686,8.616,36.689-15.553L428.163,216.1s-11.571-29.3-22.411-38.664S373.745,177.236,369.312,187.828Z" transform="translate(-312.537 -157.33)" fill="#fff"/>
      <path id="Path_1336" data-name="Path 1336" d="M402.8,250.927a.778.778,0,0,1-.715-.467l-3.359-7.776a42.3,42.3,0,0,1-7.636,3.375c-1.711.28-9.44-8.087-15.553-15.164-1-.513-5.615-2.971-6.625-5.241-.84-1.866,1.26-4.4,2.955-6.454.42-.513.933-1.12,1.12-1.431-.218-.513-.84-1.82-1.446-3.111-1.446-2.986-3.406-7.092-3.888-8.538-.778-2.317,1-16.47,1.2-18.072v-.2c2.582-6.221,10.514-11.882,19.285-14,7.372-1.726,13.92-.56,18.4,3.313,10.887,9.332,22.147,37.762,22.614,38.959l11.027,18.119a.716.716,0,0,1,.078.638.793.793,0,0,1-.435.482l-36.689,15.553a.746.746,0,0,1-.326.016Zm-3.686-10.171a.7.7,0,0,1,.249,0,.777.777,0,0,1,.467.42l3.391,7.916,35.149-14.868-10.622-17.45c-.171-.4-11.68-29.363-22.256-38.477-4.09-3.546-10.14-4.666-17.015-2.986-8.15,1.929-15.755,7.356-18.165,12.94-.747,5.941-1.742,15.8-1.244,17.279s2.4,5.412,3.81,8.367a20.753,20.753,0,0,1,1.555,3.453c.233.669-.311,1.322-1.555,2.737s-3.111,3.841-2.737,4.837c.638,1.415,4.044,3.53,6.05,4.541a.684.684,0,0,1,.233.187c6.1,7,13.158,14.433,14.448,14.759a54.319,54.319,0,0,0,7.776-3.608.746.746,0,0,1,.467-.047Zm-26.144-22.862Z" transform="translate(-312.788 -157.596)" fill="#263238"/>
      <path id="Path_1337" data-name="Path 1337" d="M382.58,223.025l9.3-9.985-1.166,6.3Z" transform="translate(-304.389 -135.402)" fill="#263238"/>
      <path id="Path_1338" data-name="Path 1338" d="M382.865,224.122a.746.746,0,0,1-.622-.311.793.793,0,0,1,0-1l9.332-9.985a.762.762,0,0,1,.918-.171.778.778,0,0,1,.42.84l-1.166,6.3a.762.762,0,0,1-.451.56l-8.118,3.7A.809.809,0,0,1,382.865,224.122Zm8.041-8.274-4.821,5.179,4.215-1.913Z" transform="translate(-304.673 -135.66)" fill="#263238"/>
      <path id="Path_1339" data-name="Path 1339" d="M373.7,214.677a2.052,2.052,0,0,1-.607-.093c-2.831-.747-6.454-7.139-6.859-7.87a.778.778,0,0,1,.264-1.026l23.329-14.775a.778.778,0,1,1,.84,1.306L373.45,203.106c1.213,2.8,3.841,9.72,1.2,11.307A1.944,1.944,0,0,1,373.7,214.677Zm-5.817-7.994c1.555,2.52,4.013,6.081,5.537,6.485a.451.451,0,0,0,.4,0c1.042-.622,0-5.148-1.711-9.129Z" transform="translate(-313.518 -147.77)" fill="#263238"/>
      <path id="Path_1340" data-name="Path 1340" d="M375.413,212.511a.778.778,0,0,1-.327-1.477h0a4.246,4.246,0,0,0,1.8-5.459.778.778,0,0,1,.5-.98.762.762,0,0,1,.98.5,5.77,5.77,0,0,1-2.628,7.341A.637.637,0,0,1,375.413,212.511Z" transform="translate(-308.793 -140.115)" fill="#263238"/>
      <path id="Path_1341" data-name="Path 1341" d="M369.878,196.73a.778.778,0,0,1-.778-.778,3.11,3.11,0,0,1,1.213-2.442,3.717,3.717,0,0,1,3.546,0,.778.778,0,1,1-.576,1.446c-.964-.389-1.7-.451-2.1-.171a1.555,1.555,0,0,0-.529,1.166.778.778,0,0,1-.778.778Z" transform="translate(-311.874 -146.496)" fill="#263238"/>
      <path id="Path_1342" data-name="Path 1342" d="M375.207,205.755a.778.778,0,0,1-.669-.389l-2.955-5.179a.778.778,0,1,1,1.353-.762l2.955,5.163a.778.778,0,0,1-.3,1.058A.7.7,0,0,1,375.207,205.755Z" transform="translate(-310.562 -143.203)" fill="#263238"/>
      <path id="Path_1343" data-name="Path 1343" d="M374.835,182.5c.747.249-.249-10.342-3.686-7.636s-3.7,12.567-3.7,12.567-4.432-5.412-5.412-.98,5.661,11.82,8.119,11.571,12.815-9.86,12.318-6.905-3.7,8.134-1.726,9.114,6.89-.98,6.89-.98.747,11.073,3.7,10.591,5.164-5.179,7.388-2.224S416.2,225.6,417.2,225.6s14.277-3.935,14.277-3.935.98-15.273,1.726-25.366-5.179-23.64-13.8-29.052-21.432-4.2-27.575,0S374.835,182.5,374.835,182.5Z" transform="translate(-315.851 -162.841)" fill="#263238"/>
      <path id="Path_1344" data-name="Path 1344" d="M417.459,226.7c-1.757,0-18.228-17.108-19.083-18.29a1.555,1.555,0,0,0-.871-.653,5.149,5.149,0,0,0-2.286,1.26,8.087,8.087,0,0,1-3.484,1.913,1.975,1.975,0,0,1-1.555-.435c-1.96-1.555-2.706-7.372-2.939-9.845-1.649.56-4.852,1.462-6.548.607-1.929-.964-.855-3.795.2-6.532a29.919,29.919,0,0,0,.98-2.862,46.169,46.169,0,0,0-4.79,3.25c-3.282,2.411-5.366,3.888-6.563,4.013-1.9.2-4.495-2.52-5.226-3.359-2.24-2.5-4.386-6.221-3.733-9.161.3-1.306.9-2.084,1.8-2.3a4.666,4.666,0,0,1,3.7,1.555c.264-3.111,1.1-9.16,3.888-11.338a2.162,2.162,0,0,1,2.94,0c1.244,1.073,2.006,4.044,2.193,6.221,3.2-3.2,10.747-10.545,15.553-13.842,6.594-4.479,19.6-5.568,28.43,0,8.461,5.319,14.946,18.959,14.153,29.783-.731,9.969-1.726,25.2-1.726,25.351a.809.809,0,0,1-.56.7C428.828,223.588,418.485,226.7,417.459,226.7ZM397.4,206.2h.311a2.877,2.877,0,0,1,1.913,1.26c2.162,2.893,16.019,16.486,17.963,17.652,1.244-.2,8.585-2.3,13.422-3.733.187-2.815,1.042-15.91,1.7-24.884.747-10.311-5.4-23.329-13.422-28.337s-20.669-4.137-26.735,0c-5.521,3.748-14.977,13.251-16.626,14.915h0a.98.98,0,0,1-1.042.42.84.84,0,0,1-.513-.56.762.762,0,0,1,.2-.715c.156-1.151-.451-5.77-1.773-6.672a.784.784,0,0,0-.886.187c-2.582,2.037-3.328,9.332-3.391,11.96a.793.793,0,0,1-1.384.482c-.933-1.135-2.644-2.613-3.406-2.442-.358.093-.56.747-.638,1.12-.5,2.208,1.338,5.521,3.375,7.776,1.711,1.929,3.328,2.924,3.9,2.831.871-.093,3.717-2.177,5.8-3.7,4.293-3.111,5.894-4.2,6.874-3.593a1.166,1.166,0,0,1,.482,1.306,20.218,20.218,0,0,1-1.182,3.7c-.607,1.555-1.555,4.246-.949,4.588,1.2.591,4.464-.311,6.221-1.026a.793.793,0,0,1,.7.078.746.746,0,0,1,.358.607c.218,3.188,1.073,8.663,2.442,9.751a.42.42,0,0,0,.358.109,7.03,7.03,0,0,0,2.768-1.555,5.553,5.553,0,0,1,3.157-1.571Z" transform="translate(-316.125 -163.12)" fill="#263238"/>
      <path id="Path_1345" data-name="Path 1345" d="M381.93,200.586s-1.975-14,2.955-11.587,8.865,15.553,7.636,18.477-4.184.98-4.184.98" transform="translate(-304.967 -148.906)" fill="#fff"/>
      <path id="Path_1346" data-name="Path 1346" d="M390.626,210.126a4.791,4.791,0,0,1-2.442-.778.778.778,0,0,1-.218-1.073.762.762,0,0,1,1.073-.218,2.94,2.94,0,0,0,2.037.451,1.758,1.758,0,0,0,1.011-1.089c1.089-2.613-2.691-15.195-7.263-17.481-.715-.358-1-.156-1.1,0-1.415,1.011-1.291,6.952-.731,10.887a.793.793,0,0,1-.669.871.762.762,0,0,1-.871-.653c-.249-1.726-1.322-10.4,1.369-12.349a2.442,2.442,0,0,1,2.691,0c5.475,2.722,9.332,16.206,8.01,19.456a3.22,3.22,0,0,1-2.006,1.991,3.485,3.485,0,0,1-.886-.016Z" transform="translate(-305.25 -149.145)" fill="#263238"/>
      <path id="Path_1347" data-name="Path 1347" d="M389.137,228.334l-5.4,15.288a241.657,241.657,0,0,1,32.4-14.386,163.588,163.588,0,0,1,26.44-6.905l-8.1-11.991S401.128,213.637,389.137,228.334Z" transform="translate(-303.744 -136.901)" fill="#69be96"/>
      <path id="Path_1348" data-name="Path 1348" d="M384.016,244.7a.9.9,0,0,1-.513-.187.809.809,0,0,1-.218-.855l5.4-15.3a1.682,1.682,0,0,1,.124-.233c12.069-14.775,44.449-18.134,45.818-18.274a.762.762,0,0,1,.731.342l8.1,11.991a.793.793,0,0,1,0,.746.809.809,0,0,1-.607.467,164.516,164.516,0,0,0-26.191,6.921,244.281,244.281,0,0,0-32.241,14.277A.685.685,0,0,1,384.016,244.7ZM390.1,229l-4.666,13.282a238.657,238.657,0,0,1,30.732-13.531,180.141,180.141,0,0,1,25.32-6.734l-7.154-10.591C430.3,211.91,401.062,215.736,390.1,229Z" transform="translate(-304.021 -137.181)" fill="#263238"/>
      <path id="Path_1349" data-name="Path 1349" d="M332.909,246.218l34,57.063a1.151,1.151,0,0,0,1.244.529l31.93-7.776a1.12,1.12,0,0,0,.7-1.664l-29.55-51.2a1.182,1.182,0,0,0-1.042-.56l-36.44,1.96a1.12,1.12,0,0,0-.84,1.649Z" transform="translate(-332.046 -118.983)" fill="#263238"/>
      <path id="Path_1350" data-name="Path 1350" d="M368.131,304.919a1.866,1.866,0,0,1-1.555-.933l-34.014-57.063a1.851,1.851,0,0,1,0-1.882,1.913,1.913,0,0,1,1.555-1.011l36.44-1.96a1.928,1.928,0,0,1,1.758.949l29.55,51.2a1.913,1.913,0,0,1-1.2,2.8l-31.93,7.776A1.555,1.555,0,0,1,368.131,304.919Zm2.442-61.293h0l-36.44,1.96a.358.358,0,0,0-.3.187.342.342,0,0,0,0,.342h0l34,57.078a.358.358,0,0,0,.389.156l31.93-7.776a.373.373,0,0,0,.233-.513l-29.55-51.2a.327.327,0,0,0-.264-.233Z" transform="translate(-332.305 -119.283)" fill="#263238"/>
      <path id="Path_1351" data-name="Path 1351" d="M335.28,247.024l30.608,51.355,29.566-7.248L369,245.22Z" transform="translate(-330.653 -117.533)" fill="#878787"/>
      <path id="Path_1352" data-name="Path 1352" d="M366.2,299.424a.778.778,0,0,1-.669-.373l-30.608-51.324a.793.793,0,0,1,.622-1.182l33.718-1.8a.731.731,0,0,1,.715.389l26.44,45.9a.793.793,0,0,1,0,.7.778.778,0,0,1-.529.451l-29.55,7.263Zm-29.286-51.417,29.659,49.768,27.995-6.874L368.878,246.3Z" transform="translate(-330.906 -117.801)" fill="#263238"/>
      <path id="Path_1353" data-name="Path 1353" d="M376.985,252.38s-9.005,4.806-12.3,6.3-5.1,2.706-3,4.51,9.332-2.411,9.332-2.411l5.708-2.4Z" transform="translate(-316.493 -113.558)" fill="#fff"/>
      <path id="Path_1354" data-name="Path 1354" d="M363.49,264.661a3.111,3.111,0,0,1-2.037-.622,2.566,2.566,0,0,1-1.151-2.317c.187-1.353,1.726-2.3,4.339-3.484,3.235-1.478,12.162-6.221,12.255-6.221a.778.778,0,0,1,.778,0,.793.793,0,0,1,.358.7l-.3,6a.762.762,0,0,1-.482.669l-5.692,2.4C370.629,262.313,366.414,264.661,363.49,264.661Zm12.924-10.685c-2.582,1.369-8.538,4.495-11.136,5.677-.918.42-3.328,1.555-3.437,2.286,0,.218.187.544.622.918,1.151.98,5.692-.9,8.4-2.488l5.335-2.255Z" transform="translate(-316.762 -113.817)" fill="#263238"/>
      <path id="Path_1355" data-name="Path 1355" d="M424.547,459.8l2.037,15.553s-2.037,3.39-8.476,4.059-11.2,1.7-11.2,1.7l1.773-15.164Z" transform="translate(-290.879 1.615)" fill="#fff"/>
      <path id="Path_1356" data-name="Path 1356" d="M407.2,482.2a.793.793,0,0,1-.529-.2.777.777,0,0,1-.249-.669L408.2,466.15a.747.747,0,0,1,.482-.622l15.864-6.221a.808.808,0,0,1,.684,0,.778.778,0,0,1,.373.575l2.037,15.553a.761.761,0,0,1-.109.5c-.093.156-2.317,3.748-9.067,4.448-6.33.669-11.058,1.68-11.1,1.68Zm2.473-15.4-1.555,13.64c1.773-.342,5.568-1.011,10.218-1.555,5.086-.544,7.2-2.8,7.776-3.5l-1.866-14.308Z" transform="translate(-291.153 1.3)" fill="#263238"/>
      <path id="Path_1357" data-name="Path 1357" d="M426.584,470.635l-.3-2.255a61.122,61.122,0,0,1-18.819,3.313l-.56,4.666s4.759-1.011,11.2-1.7S426.584,470.635,426.584,470.635Z" transform="translate(-290.879 6.38)" fill="#fff"/>
      <path id="Path_1358" data-name="Path 1358" d="M407.2,477.414a.793.793,0,0,1-.529-.2.777.777,0,0,1-.249-.669l.544-4.666a.778.778,0,0,1,.747-.684,60.361,60.361,0,0,0,18.57-3.266.824.824,0,0,1,.684,0,.747.747,0,0,1,.373.56l.3,2.255a.761.761,0,0,1-.109.5c-.093.156-2.317,3.748-9.067,4.448-6.33.669-11.058,1.68-11.1,1.68Zm1.229-4.744-.342,2.986c1.773-.342,5.568-1.011,10.218-1.555,5.086-.544,7.2-2.8,7.776-3.5l-.124-1a62.705,62.705,0,0,1-17.528,3.142Z" transform="translate(-291.153 6.087)" fill="#263238"/>
      <path id="Path_1359" data-name="Path 1359" d="M400.58,455.66l-17.637,10.887a94.264,94.264,0,0,1-12.209,2.38,3.857,3.857,0,0,0-2.364,6.781c2.037,1.7,8.772,4.573,17.294,6.439,16.952,3.733,41.37,2.38,43.392,1.353a7.776,7.776,0,0,0,4.075-4.059c.342-1.353,0-14.588,0-14.588S407.423,461.757,400.58,455.66Z" transform="translate(-313.026 -0.683)" fill="#fff"/>
      <path id="Path_1360" data-name="Path 1360" d="M413.06,485.627a134.653,134.653,0,0,1-27.295-2.488c-8.554-1.882-15.475-4.806-17.621-6.61a4.868,4.868,0,0,1-1.369-5.117,4.433,4.433,0,0,1,4.184-3.033,93.318,93.318,0,0,0,11.96-2.317l17.528-10.794a.778.778,0,0,1,.918.093c6.532,5.863,31.883,8.927,32.132,8.958a.777.777,0,0,1,.684.747c0,2.224.327,13.406,0,14.791a8.6,8.6,0,0,1-4.479,4.573C428.566,484.99,421.769,485.627,413.06,485.627Zm-12.287-28.741-17.108,10.56a.657.657,0,0,1-.218.093,95.122,95.122,0,0,1-12.349,2.4,2.877,2.877,0,0,0-2.815,1.944,3.406,3.406,0,0,0,.887,3.468c1.726,1.431,8.118,4.324,16.968,6.221,16.968,3.748,41.261,2.24,42.879,1.431a7.325,7.325,0,0,0,3.67-3.562c.218-.871.109-8.6,0-13.7-4.153-.482-24.993-3.375-31.914-8.85Zm-17.559,9.891Z" transform="translate(-313.297 -0.961)" fill="#263238"/>
      <path id="Path_1361" data-name="Path 1361" d="M383.272,472.379c-9.938-3.017-14-5.474-15.662-7.139a4.137,4.137,0,0,0,.747,5.1c2.037,1.7,8.772,4.573,17.294,6.439,16.952,3.733,41.37,2.38,43.392,1.353a8.243,8.243,0,0,0,3.981-3.795C421.687,475.318,397.472,476.687,383.272,472.379Z" transform="translate(-313.013 4.636)" fill="#fff"/>
      <path id="Path_1362" data-name="Path 1362" d="M413.045,480.294a134.653,134.653,0,0,1-27.295-2.488c-8.554-1.882-15.475-4.806-17.621-6.61a4.884,4.884,0,0,1-.887-6.066.793.793,0,0,1,.575-.358.747.747,0,0,1,.638.233c1.462,1.477,5.319,3.888,15.335,6.936h0c14.293,4.339,39.348,2.8,49.442,1.929a.793.793,0,0,1,.7.311.762.762,0,0,1,.109.731,8.989,8.989,0,0,1-4.355,4.23C428.551,479.656,421.754,480.294,413.045,480.294Zm-44.869-13.484a3.39,3.39,0,0,0,.949,3.2c1.726,1.431,8.118,4.324,16.968,6.221,16.968,3.748,41.261,2.24,42.879,1.431a9.329,9.329,0,0,0,2.877-2.208c-12.94,1.042-35.04,1.975-48.524-2.115h0C375.905,471.133,370.819,468.925,368.175,466.809Z" transform="translate(-313.282 4.373)" fill="#263238"/>
      <path id="Path_1363" data-name="Path 1363" d="M438.112,317.46s0,16.719-5.583,25.693-13.36,17.03-13.36,18.274-7.419,59.1-7.419,62.211-.311,12.084,1.555,16.719,8.989,34.06,13.313,60.375,2.473,32.832,2.473,32.832a33.073,33.073,0,0,1,1.866,5.879,29.65,29.65,0,0,1-.933,4.666,35.275,35.275,0,0,1-17.03.933,24.137,24.137,0,0,1,.622-7.434c.933-2.473.311-9.332.311-10.887s-11.773-81.745-11.773-87.935-.3-71.838-.3-71.838L399.09,321.41A381.709,381.709,0,0,0,438.112,317.46Z" transform="translate(-295.221 -77.421)" fill="#69be96"/>
      <path id="Path_1364" data-name="Path 1364" d="M420.737,546.69a37.888,37.888,0,0,1-7.605-.638.793.793,0,0,1-.607-.715,25.335,25.335,0,0,1,.669-7.776c.684-1.8.451-6.439.327-8.927v-1.555c0-.653-1.431-10.545-3.111-22.007-3.468-24.589-8.709-61.744-8.709-65.928,0-6.128-.311-71.185-.311-71.838l-2.8-45.476a.793.793,0,0,1,.747-.824c.171,0,16.33-.653,38.882-4.013a.747.747,0,0,1,.622.187.762.762,0,0,1,.28.591c0,.684,0,17.108-5.692,26.1a137.753,137.753,0,0,1-9.752,13.3,35.777,35.777,0,0,0-3.453,4.666c0,.42-.84,7.325-2.488,20.5-2.084,16.8-4.93,39.8-4.93,41.65v1.2c0,3.655-.093,11.229,1.555,15.242,1.913,4.806,9.036,34.34,13.36,60.531,3.888,23.64,2.815,31.4,2.52,32.894a28.428,28.428,0,0,1,1.82,5.941,27.5,27.5,0,0,1-.964,4.852.762.762,0,0,1-.513.529,37.792,37.792,0,0,1-9.845,1.524Zm-6.672-2.053a41.209,41.209,0,0,0,6.672.5,36.1,36.1,0,0,0,8.958-1.4,24.242,24.242,0,0,0,.793-4.013,30.637,30.637,0,0,0-1.8-5.6.777.777,0,0,1,0-.5s1.742-6.843-2.488-32.489c-4.293-26.082-11.369-55.461-13.266-60.2-1.726-4.293-1.649-11.789-1.555-15.833v-1.182c0-1.944,2.737-24.076,4.946-41.852,1.26-10.171,2.457-19.783,2.473-20.39s.918-1.944,3.795-5.537a134.682,134.682,0,0,0,9.643-13.126c4.666-7.512,5.335-20.825,5.443-24.387-19.41,2.846-33.92,3.686-37.4,3.857l2.737,44.729c0,.7.327,65.757.327,71.884,0,4.075,5.226,41.168,8.694,65.71,2.068,14.62,3.111,21.665,3.111,22.225v1.555c.14,2.784.373,7.45-.42,9.549a20.732,20.732,0,0,0-.653,6.5Z" transform="translate(-295.499 -77.685)" fill="#263238"/>
      <path id="Path_1365" data-name="Path 1365" d="M431.243,351.588s-7.419,13.624-8.041,14.868-.622,12.069-.622,14.557-1.555,49.535-1.244,55.99,5.272,26.626,6.812,38.7,4.339,47.373,4.666,48.307a19.223,19.223,0,0,1,.933,8.056,30.344,30.344,0,0,1-2.177,5.879s.933,5.257.311,6.812-8.974,3.111-20.747-.311-16.719-10.887-16.719-10.887a13.546,13.546,0,0,0,.622-4.666,3.873,3.873,0,0,1,3.111-3.717l-5.786-41.385s-5.568-13-5.879-15.164,1.229-7.434.918-9.612-4.013-6.812-4.324-8.974-10.529-36.844-11.151-67.5.544-59.1.544-59.1,7.776,4.044,31.961,2.5,33.749-1.866,45.212-6.812" transform="translate(-310.406 -76.494)" fill="#69be96"/>
      <path id="Path_1366" data-name="Path 1366" d="M424.72,547.564a49.366,49.366,0,0,1-13.469-2.084c-11.9-3.437-16.937-10.887-17.108-11.151a.747.747,0,0,1-.078-.715,13.578,13.578,0,0,0,.56-4.355,4.5,4.5,0,0,1,3.017-4.277l-5.786-40.717c-.731-1.726-5.583-13.111-5.894-15.273a19.863,19.863,0,0,1,.467-5.1,19.656,19.656,0,0,0,.467-4.572,17.584,17.584,0,0,0-2.068-4.2,16.674,16.674,0,0,1-2.271-4.775,26.523,26.523,0,0,0-.778-3.11c-2.426-9.518-9.845-38.477-10.374-64.45-.622-30.328.529-58.929.544-59.209a.747.747,0,0,1,.373-.638.793.793,0,0,1,.747,0c.078,0,8.025,3.935,31.572,2.426l4.666-.3c21.058-1.338,29.768-1.882,40.344-6.454a.78.78,0,1,1,.622,1.431c-10.887,4.666-20.219,5.272-40.872,6.579l-4.588.3c-19.456,1.244-28.415-1.1-31.292-2.146-.2,5.568-1.042,31.105-.5,58.011.513,25.8,7.9,54.621,10.327,64.092.529,2.037.762,2.955.809,3.313a17.1,17.1,0,0,0,2.068,4.2,16.858,16.858,0,0,1,2.271,4.775,19.814,19.814,0,0,1-.467,5.039,19.736,19.736,0,0,0-.467,4.572,154.371,154.371,0,0,0,5.832,14.962.483.483,0,0,1,0,.2l5.895,41.494a.793.793,0,0,1-.622.871,3.111,3.111,0,0,0-2.473,2.955,17.106,17.106,0,0,1-.529,4.495,31.106,31.106,0,0,0,16.066,10.234c11.82,3.422,19.27,1.555,19.814.747a19.909,19.909,0,0,0-.358-6.361.73.73,0,0,1,.078-.482,31.247,31.247,0,0,0,2.1-5.708,18.149,18.149,0,0,0-.918-7.636c-.124-.4-.4-3.3-1.384-14.542s-2.364-26.766-3.282-33.9c-.747-5.817-2.255-13.36-3.717-20.654a176.719,176.719,0,0,1-3.111-18.119c-.218-4.744.513-30.39.964-45.709.156-5.63.28-9.689.28-10.358,0-13.5.513-14.526.7-14.9.622-1.244,7.776-14.34,8.056-14.9a.78.78,0,1,1,1.369.747c-.078.14-7.434,13.624-8.041,14.837-.124.28-.529,2.162-.529,14.215,0,.684-.124,4.759-.28,10.4-.42,14.293-1.182,40.9-.964,45.6a171.9,171.9,0,0,0,3.111,17.886c1.462,7.31,2.986,14.884,3.733,20.747.918,7.17,2.286,22.66,3.282,33.967.622,7.014,1.213,13.655,1.338,14.231,0,0,1.68,5.1.933,8.43a29.16,29.16,0,0,1-2.115,5.832c.218,1.306.84,5.428.233,6.983C432.434,546.615,429.355,547.564,424.72,547.564Z" transform="translate(-310.696 -76.817)" fill="#263238"/>
      <path id="Path_1367" data-name="Path 1367" d="M395.932,471.543a.762.762,0,0,1-.731-.529s-.684-2.037-1.711-5.443a5.272,5.272,0,0,1,1.555-5.677L393.1,439.676a.793.793,0,0,1,.7-.855.809.809,0,0,1,.855.7l1.975,20.638a.762.762,0,0,1-.358.731,3.655,3.655,0,0,0-1.369,4.2c1.011,3.375,1.7,5.4,1.7,5.412a.778.778,0,0,1-.5.98A.641.641,0,0,1,395.932,471.543Z" transform="translate(-298.548 -10.035)" fill="#263238"/>
      <path id="Path_1368" data-name="Path 1368" d="M399.614,470.375a.809.809,0,0,1-.778-.715l-3.111-32.038a14,14,0,0,1-3.593-3.033c-1.446-1.742.156-4.044,1.338-5.723a7.776,7.776,0,0,0,.887-1.446s-6.221-20.732-11.882-49.768c-.264-1.415-.529-2.877-.762-4.386a.793.793,0,0,1,.653-.9.809.809,0,0,1,.886.653c.233,1.555.482,2.94.762,4.339,5.646,28.99,11.789,49.582,11.836,49.768.249.747-.3,1.555-1.1,2.691s-2.1,3.017-1.415,3.841a12.318,12.318,0,0,0,3.484,2.862.746.746,0,0,1,.42.622l3.11,32.443a.762.762,0,0,1-.7.84Z" transform="translate(-304.875 -46.939)" fill="#263238"/>
      <path id="Path_1369" data-name="Path 1369" d="M382.3,390.211a.793.793,0,0,1-.778-.7c-2.753-27.155-.824-61.7-.809-62.04a.762.762,0,0,1,.824-.731.793.793,0,0,1,.731.824c0,.342-1.944,34.76.809,61.791a.778.778,0,0,1-.7.855Z" transform="translate(-305.8 -72.269)" fill="#263238"/>
      <path id="Path_1370" data-name="Path 1370" d="M382.015,346.171a.715.715,0,0,1-.513-.2c-6.983-6.221-6.066-18.445-6.019-18.959a.793.793,0,0,1,.84-.7.762.762,0,0,1,.7.84c0,.109-.887,11.9,5.521,17.668a.778.778,0,0,1-.529,1.353Z" transform="translate(-308.365 -72.508)" fill="#263238"/>
      <path id="Path_1371" data-name="Path 1371" d="M395.716,337.77a.778.778,0,0,1-.731-.482l-2.037-5.086a.778.778,0,0,1,.109-.747.793.793,0,0,1,.638-.358c.171,0,16.89-.373,24.449-3.655a.778.778,0,0,1,1.026.4.762.762,0,0,1-.4,1.011c-6.765,2.955-19.97,3.624-23.92,3.764l1.322,3.5c2.38-.156,11.82-.855,15.833-2.286a.778.778,0,0,1,.529,1.462c-4.806,1.711-16.346,2.4-16.844,2.411Z" transform="translate(-298.66 -71.914)" fill="#263238"/>
      <path id="Path_1372" data-name="Path 1372" d="M372.17,326.429s4.2,7.776,36.891,6,45.289-7.2,45.6-9.907a54.448,54.448,0,0,0-.607-9.005S392.264,318.03,372.17,326.429Z" transform="translate(-310.169 -79.609)" fill="#c2c2c2"/>
      <path id="Path_1373" data-name="Path 1373" d="M400.16,333.747c-24.48,0-28.228-6.377-28.4-6.672a.9.9,0,0,1,0-.638.778.778,0,0,1,.435-.451c19.985-8.352,79.614-12.784,82.134-12.955a.778.778,0,0,1,.84.653,54.333,54.333,0,0,1,.591,9.207c-.435,4.013-16.5,8.943-46.316,10.576C405.992,333.654,402.928,333.747,400.16,333.747Zm-26.44-6.765c2.068,1.789,9.938,6.33,35.522,4.93,33.656-1.851,44.667-7.4,44.869-9.207a46.494,46.494,0,0,0-.5-8.087C446.818,315.162,393.255,319.5,373.72,326.982ZM372.4,326.686Z" transform="translate(-310.428 -79.882)" fill="#263238"/>
      <path id="Path_1374" data-name="Path 1374" d="M408.323,239.336s-18.305,8.414-18.663,11.1-9.907,75.29-9.907,75.29l-14.386-16.8s.3-6-.607-8.4-1.2-4.2-3.3-5.1-9-2.691-10.794-4.2-6.905-6.3-8.1-4.495-3.608,4.806-3,6.905,3,6.221,3,7.5,0,10.2,3.9,14.4a24.883,24.883,0,0,0,9.6,5.988s9.332,24.6,12.6,29.41,17.108,15.895,17.108,15.895-3.3,7.776-2.4,8.4,5.1,6.89,6.221,6.89,37.2-5.988,39.893-6.3,29.706,0,31.805-.887a86.692,86.692,0,0,0,10.5-5.1,7,7,0,0,0,2.691-8.1c-1.2-4.806-2.4-38.7-2.4-41.7s6-26.7,8.694-36a404.126,404.126,0,0,0,8.1-41.09c.3-4.495-3.3-14.993-4.495-15.553s-17.4-9.332-17.4-9.332S440.423,220.144,408.323,239.336Z" transform="translate(-328.327 -132.614)" fill="#c2c2c2"/>
      <path id="Path_1375" data-name="Path 1375" d="M389.976,383.181c-.964,0-2.053-1.182-4.837-4.744a23.818,23.818,0,0,0-1.9-2.286c-.451-.3-1.384-.917,1.9-8.8-2.473-2.006-13.78-11.291-16.8-15.693s-11.385-26.1-12.567-29.208a25.631,25.631,0,0,1-9.565-6.081c-3.7-4-4.106-11.773-4.106-14.931a17.409,17.409,0,0,0-1.415-3.53,29.551,29.551,0,0,1-1.555-3.764c-.622-2.162,1.229-4.821,2.566-6.765.2-.28.373-.544.529-.778a1.649,1.649,0,0,1,1.182-.715c1.726-.249,4.448,1.929,7.279,4.386l.793.669a32.317,32.317,0,0,0,7.279,2.924c1.4.451,2.6.855,3.328,1.151,2.084.9,2.659,2.566,3.344,4.495.109.327.233.684.373,1.058a28.491,28.491,0,0,1,.653,8.4l13.08,15.242c1.446-11.027,9.332-71.122,9.658-73.549.311-2.831,13.375-9.114,19.021-11.711,31.867-19.052,58.82-21.354,59.1-21.385a.808.808,0,0,1,.435.093c.156.093,16.206,8.694,17.372,9.332,1.8.9,5.21,12.209,4.93,16.346a407.282,407.282,0,0,1-8.134,41.261c-2.924,10.125-8.663,33.065-8.663,35.771,0,3.5,1.244,36.969,2.38,41.51a7.776,7.776,0,0,1-2.971,8.9,83.858,83.858,0,0,1-10.685,5.21c-1.369.591-10,.684-22.023.778-4.868,0-9.052,0-9.985.171-1.213.14-9.332,1.462-17.994,2.862C398.732,381.89,390.645,383.181,389.976,383.181ZM384.3,375a24.879,24.879,0,0,1,2.053,2.473,23.141,23.141,0,0,0,3.717,4.168c.684,0,12.3-1.929,21.649-3.437,8.647-1.4,16.812-2.722,18.072-2.862,1.011-.124,5.039-.14,10.14-.187,7.559,0,20.218-.14,21.432-.653a81.724,81.724,0,0,0,10.327-4.992,6.221,6.221,0,0,0,2.426-7.31c-1.244-4.946-2.426-39.379-2.426-41.883,0-3.111,6-26.813,8.725-36.222a400.672,400.672,0,0,0,8.072-40.966c.3-4.339-3.111-14.075-4.121-14.884-1.089-.544-15.179-8.118-17.108-9.176-2.644.264-28.212,3.219-58.229,21.167h-.078c-8.476,3.888-17.823,9-18.15,10.483-.3,2.675-9.518,72.335-9.907,75.306a.777.777,0,0,1-.544.638.746.746,0,0,1-.809-.233l-14.4-16.8a.731.731,0,0,1-.187-.544,28.878,28.878,0,0,0-.56-8.087L364,299.912c-.622-1.773-1.026-2.955-2.488-3.577-.653-.28-1.82-.653-3.188-1.1-3.033-.98-6.47-2.1-7.776-3.2l-.809-.7c-1.337-1.135-4.837-4.184-6.065-4.013a9.982,9.982,0,0,0-.638.84c-1.1,1.555-2.768,4-2.348,5.459a28.8,28.8,0,0,0,1.478,3.53,13.6,13.6,0,0,1,1.555,4.184c0,2.317.264,10.171,3.686,13.873a24.884,24.884,0,0,0,9.332,5.786.778.778,0,0,1,.5.467c.093.233,9.332,24.558,12.442,29.223s16.812,15.63,16.952,15.739a.762.762,0,0,1,.218.9A33.638,33.638,0,0,0,384.3,375ZM384.113,374.86Zm24.464-135.23Z" transform="translate(-328.581 -132.893)" fill="#263238"/>
      <path id="Path_1376" data-name="Path 1376" d="M369.545,346.686a.762.762,0,0,1-.762-.653.793.793,0,0,1,.638-.9c3.982-.669,10.731-2.131,11.929-3.111,1.789-2.037,17.419-47.513,18.041-50.266.467-2.146,1.229-26.175,1.555-35.242a.793.793,0,0,1,.793-.762.778.778,0,0,1,.762.793c0,1.338-.9,32.816-1.555,35.553-.093.435-16.237,49.193-18.554,51.122-1.9,1.555-11.571,3.282-12.66,3.468Z" transform="translate(-312.055 -111.686)" fill="#263238"/>
      <path id="Path_1377" data-name="Path 1377" d="M390,276.938h-.218a.778.778,0,0,1-.529-.964l5.086-18.29a.793.793,0,0,1,.964-.544.778.778,0,0,1,.544.949l-5.1,18.305A.778.778,0,0,1,390,276.938Z" transform="translate(-300.702 -110.93)" fill="#263238"/>
      <path id="Path_1378" data-name="Path 1378" d="M365,306.355a.778.778,0,0,1-.762-.653c-.918-5.164,1.12-17.714,1.2-18.259a.778.778,0,0,1,.762-.653h0a.778.778,0,0,1,.762.653c0,.124,2.115,12.442,5.848,17.357a.778.778,0,1,1-1.229.949c-2.52-3.282-4.277-9.409-5.241-13.609-.529,4.184-1.12,10.249-.575,13.3a.793.793,0,0,1-.638.9Z" transform="translate(-314.707 -94.451)" fill="#263238"/>
      <path id="Path_1379" data-name="Path 1379" d="M365.406,284.557s.3-6-.607-8.4-1.2-4.2-3.3-5.1-9.005-2.691-10.794-4.2-6.905-6.3-8.1-4.495-3.608,4.806-3,6.905,3,6.221,3,7.5,0,10.2,3.9,14.4a24.885,24.885,0,0,0,9.6,5.988s.513,1.384,1.353,3.53c1.82-4.417,5.537-9.845,12.784-10.482Z" transform="translate(-328.305 -108.237)" fill="#fff"/>
      <path id="Path_1380" data-name="Path 1380" d="M357.73,301.737h0a.793.793,0,0,1-.715-.5l-1.229-3.188a25.63,25.63,0,0,1-9.565-6.081c-3.7-4-4.106-11.773-4.106-14.931a17.4,17.4,0,0,0-1.415-3.53,29.559,29.559,0,0,1-1.555-3.764c-.622-2.162,1.229-4.821,2.566-6.765.2-.28.373-.544.529-.778a1.648,1.648,0,0,1,1.182-.715c1.726-.249,4.448,1.928,7.279,4.386l.793.669a32.319,32.319,0,0,0,7.279,2.924c1.4.451,2.6.855,3.328,1.151,2.084.9,2.659,2.566,3.344,4.495.109.327.233.684.373,1.058a28.493,28.493,0,0,1,.653,8.4l4.666,5.412a.778.778,0,0,1,.124.793.762.762,0,0,1-.653.482c-6.859.607-10.374,5.77-12.131,10A.778.778,0,0,1,357.73,301.737Zm-14-38.726h-.078a10,10,0,0,0-.638.84c-1.1,1.555-2.768,4-2.348,5.459a28.8,28.8,0,0,0,1.478,3.53,13.591,13.591,0,0,1,1.555,4.184c0,2.317.264,10.171,3.686,13.873a24.885,24.885,0,0,0,9.332,5.786.777.777,0,0,1,.5.467s.249.669.684,1.789a15.755,15.755,0,0,1,11.2-9.052l-3.9-4.557a.731.731,0,0,1-.187-.544,28.882,28.882,0,0,0-.56-8.087l-.389-1.089c-.622-1.773-1.026-2.955-2.488-3.577-.653-.28-1.82-.653-3.188-1.1-3.033-.98-6.47-2.1-7.776-3.2l-.809-.7c-1.478-1.089-4.79-4.013-6.143-4.013Z" transform="translate(-328.576 -108.512)" fill="#263238"/>
      <path id="Path_1381" data-name="Path 1381" d="M353.347,295.36a.559.559,0,0,1-.218,0,.762.762,0,0,1-.529-.949,17.668,17.668,0,0,1,11.291-11.027.793.793,0,0,1,1,.482.778.778,0,0,1-.482.98,16.393,16.393,0,0,0-10.311,9.985A.762.762,0,0,1,353.347,295.36Z" transform="translate(-321.052 -96.365)" fill="#263238"/>
      <path id="Path_1382" data-name="Path 1382" d="M397.707,323.766a.793.793,0,0,1-.747-.544.809.809,0,0,1,.529-.98l30.3-8.989a.762.762,0,0,1,.964.529.778.778,0,0,1-.513.964l-30.3,9.021a.605.605,0,0,1-.233,0Z" transform="translate(-296.42 -79.777)" fill="#263238"/>
      <path id="Path_1383" data-name="Path 1383" d="M398.529,301.5a.762.762,0,0,1-.638-.327.793.793,0,0,1,.171-1.089c15.319-11.229,34.418-31.821,34.62-32.023a.778.778,0,0,1,1.135,1.042c-.187.218-19.41,20.918-34.838,32.241A.824.824,0,0,1,398.529,301.5Z" transform="translate(-295.967 -104.948)" fill="#263238"/>
      <path id="Path_1384" data-name="Path 1384" d="M401.188,298.563a.778.778,0,0,1-.467-1.4c6.112-4.573,20.514-18.959,20.654-19.1a.747.747,0,0,1,1.089,0,.778.778,0,0,1,0,1.1c-.591.591-14.62,14.6-20.81,19.239A.73.73,0,0,1,401.188,298.563Z" transform="translate(-294.488 -99.427)" fill="#263238"/>
    </g>
  </g>
</svg>
