<svg xmlns="http://www.w3.org/2000/svg" width="16.791" height="13.75" viewBox="0 0 16.791 13.75">
  <path id="Icon_color" data-name="Icon color" d="M15.111,13.75H1.678A1.7,1.7,0,0,1,0,12.032V4.3A1.7,1.7,0,0,1,1.678,2.578h.982a1.673,1.673,0,0,0,1.193-.507L5.138.756A2.5,2.5,0,0,1,6.917,0H9.872a2.472,2.472,0,0,1,1.781.756l1.284,1.316a1.672,1.672,0,0,0,1.191.507h.982A1.7,1.7,0,0,1,16.791,4.3v7.735A1.7,1.7,0,0,1,15.111,13.75ZM8.395,4.455a3.178,3.178,0,0,0-3.358,2.95,3.178,3.178,0,0,0,3.358,2.95,3.634,3.634,0,0,0,2.375-.865,2.765,2.765,0,0,0,.983-2.085A3.178,3.178,0,0,0,8.395,4.455Z" fill="#fff"/>
</svg>
