<svg xmlns="http://www.w3.org/2000/svg" width="10.147" height="10.514" viewBox="0 0 10.147 10.514">
  <path id="clock-regular" d="M9.2,5.257A4.405,4.405,0,0,1,6.365,9.315a3.4,3.4,0,0,1-1.292.214A4.2,4.2,0,0,1,.951,5.257,4.2,4.2,0,0,1,5.073.986,4.2,4.2,0,0,1,9.2,5.257Zm-9.2,0a5.168,5.168,0,0,0,5.073,5.257,5.168,5.168,0,0,0,5.073-5.257A5.168,5.168,0,0,0,5.073,0,5.168,5.168,0,0,0,0,5.257ZM4.6,2.464V5.257a.5.5,0,0,0,.212.411l1.9,1.314a.464.464,0,0,0,.66-.138.5.5,0,0,0-.133-.684L5.549,4.994V2.464a.476.476,0,1,0-.951,0Z" transform="translate(0)" fill="#707070"/>
</svg>
