<svg xmlns="http://www.w3.org/2000/svg" width="23.504" height="24.354" viewBox="0 0 23.504 24.354">
  <path id="clock-regular" d="M21.3,12.177c0,4.027-2.322,7.492-6.557,9.4a7.881,7.881,0,0,1-2.992.5A9.726,9.726,0,0,1,2.2,12.177a9.726,9.726,0,0,1,9.548-9.894A9.726,9.726,0,0,1,21.3,12.177Zm-21.3,0A11.97,11.97,0,0,0,11.752,24.354,11.97,11.97,0,0,0,23.5,12.177,11.97,11.97,0,0,0,11.752,0,11.97,11.97,0,0,0,0,12.177ZM10.65,5.708v6.469a1.158,1.158,0,0,0,.491.951l4.407,3.044a1.076,1.076,0,0,0,1.529-.319,1.163,1.163,0,0,0-.308-1.584l-3.916-2.7V5.708a1.1,1.1,0,1,0-2.2,0Z" transform="translate(0)" fill="#69be96"/>
</svg>
