<svg id="Group_3853" data-name="Group 3853" xmlns="http://www.w3.org/2000/svg" width="50.005" height="50.005" viewBox="0 0 50.005 50.005">
  <rect id="Rectangle_2534" data-name="Rectangle 2534" width="50.005" height="50.005" rx="4" fill="#69be96"/>
  <path id="iconfinder_icon-upload_211937" d="M36.36,118.475c0-.064-.011-.128-.011-.192A6.22,6.22,0,0,1,42.508,112a6.139,6.139,0,0,1,5.552,3.579,3.144,3.144,0,0,1,1.427-.347,3.2,3.2,0,0,1,3.13,2.7,4.871,4.871,0,0,1-1.533,9.456H45.628v-4.274h2.566l-4.269-4.472-4.269,4.466h2.566v4.274H36.349a4.454,4.454,0,0,1,.011-8.906Z" transform="translate(-19.257 -94.691)" fill="#fff"/>
</svg>
