<svg xmlns="http://www.w3.org/2000/svg" width="23.093" height="25.437" viewBox="0 0 23.093 25.437">
  <g id="Group_18198" data-name="Group 18198" transform="translate(-81.386 -157.198)">
    <path id="Path_1564" data-name="Path 1564" d="M1044.62,139h21.093" transform="translate(-962.234 23.885)" fill="none" stroke="#a30d11" stroke-linecap="round" stroke-linejoin="round" stroke-width="2"/>
    <path id="Path_1565" data-name="Path 1565" d="M1050.135,139.687v-2.344a2.374,2.374,0,0,1,.691-1.657,2.344,2.344,0,0,1,1.652-.687h4.687a2.332,2.332,0,0,1,2.344,2.344v2.344m3.516,0v16.406a2.332,2.332,0,0,1-2.344,2.344h-11.718a2.344,2.344,0,0,1-1.652-.687,2.374,2.374,0,0,1-.691-1.657V139.687Z" transform="translate(-961.891 23.198)" fill="none" stroke="#a30d11" stroke-linecap="round" stroke-linejoin="round" stroke-width="2"/>
    <path id="Path_1566" data-name="Path 1566" d="M1051.62,144v7.031" transform="translate(-961.031 24.744)" fill="none" stroke="#a30d11" stroke-linecap="round" stroke-linejoin="round" stroke-width="2"/>
    <path id="Path_1567" data-name="Path 1567" d="M1055.62,144v7.031" transform="translate(-960.345 24.744)" fill="none" stroke="#a30d11" stroke-linecap="round" stroke-linejoin="round" stroke-width="2"/>
  </g>
</svg>
