<svg xmlns="http://www.w3.org/2000/svg" width="20.389" height="36.07" viewBox="0 0 20.389 36.07">
  <path id="dollar-sign-solid" d="M24.687,0A2.251,2.251,0,0,1,26.94,2.253V4.767c.113.014.218.028.331.049.028.007.049.007.077.014l3.38.62a2.251,2.251,0,1,1-.81,4.429l-3.345-.613A11.03,11.03,0,0,0,21.06,9.7c-1.366.542-1.915,1.289-2.042,1.979a2.3,2.3,0,0,0,.084,1.437,2.4,2.4,0,0,0,.9.93,19.181,19.181,0,0,0,5.19,1.852l.2.056a22.291,22.291,0,0,1,6.31,2.38,6.848,6.848,0,0,1,2.528,2.782,6.72,6.72,0,0,1,.451,4.169,7.2,7.2,0,0,1-4.62,5.4,11.764,11.764,0,0,1-3.127.775v2.352a2.253,2.253,0,0,1-4.507,0V31.358c-.028-.007-.063-.007-.092-.014h-.014a29.758,29.758,0,0,1-6.444-1.852,2.251,2.251,0,1,1,1.831-4.113,25.344,25.344,0,0,0,5.3,1.521,10.518,10.518,0,0,0,5.352-.373,2.716,2.716,0,0,0,1.887-2.035,2.348,2.348,0,0,0-.092-1.437,2.423,2.423,0,0,0-.915-.937,19.369,19.369,0,0,0-5.211-1.852l-.2-.049h0a22.821,22.821,0,0,1-6.3-2.4,6.853,6.853,0,0,1-2.521-2.789,6.718,6.718,0,0,1-.43-4.169,7.32,7.32,0,0,1,4.81-5.345,13.02,13.02,0,0,1,3.042-.775V2.253A2.251,2.251,0,0,1,24.687,0Z" transform="translate(-14.436)" fill="#00be64"/>
</svg>
