<svg xmlns="http://www.w3.org/2000/svg" width="27.201" height="27.206" viewBox="0 0 27.201 27.206">
  <path id="Path_1440" data-name="Path 1440" d="M1493.442,978.445a1.156,1.156,0,0,0-.8.332,1.137,1.137,0,0,0-.329.8,1.128,1.128,0,0,1-1.131,1.133,1.125,1.125,0,0,1-.8-.332,1.147,1.147,0,0,1-.338-.8,3.4,3.4,0,0,1,6.809,0,1.147,1.147,0,0,1-.338.8,1.125,1.125,0,0,1-.8.332,1.128,1.128,0,0,1-1.131-1.133,1.137,1.137,0,0,0-.329-.8A1.16,1.16,0,0,0,1493.442,978.445Zm9.078,0a1.161,1.161,0,0,0-.81.332,1.138,1.138,0,0,0-.329.8,1.128,1.128,0,0,1-1.13,1.133,1.125,1.125,0,0,1-.8-.332,1.147,1.147,0,0,1-.337-.8,3.4,3.4,0,0,1,6.809,0,1.147,1.147,0,0,1-.338.8,1.125,1.125,0,0,1-.8.332,1.128,1.128,0,0,1-1.131-1.133,1.136,1.136,0,0,0-.329-.8A1.155,1.155,0,0,0,1502.52,978.445Zm-12.394,4.535a1.164,1.164,0,0,0-.473.1,1.213,1.213,0,0,0-.388.289,1.142,1.142,0,0,0-.228.422,1.028,1.028,0,0,0-.034.48,9.068,9.068,0,0,0,17.954,0,1.029,1.029,0,0,0-.034-.481,1.142,1.142,0,0,0-.228-.422,1.21,1.21,0,0,0-.388-.289,1.175,1.175,0,0,0-.472-.1Zm7.855,6.8a6.809,6.809,0,0,1-6.42-4.534H1504.4a6.809,6.809,0,0,1-6.421,4.534Zm13.6-6.8a13.605,13.605,0,0,0-26.172-5.206,13.634,13.634,0,0,0,2.953,14.827,13.6,13.6,0,0,0,23.219-9.62Zm-24.94,0a11.344,11.344,0,1,1,3.324,8.017A11.341,11.341,0,0,1,1486.641,982.98Z" transform="translate(-1484.38 -969.375)" fill="#333"/>
</svg>
