<svg id="Star" xmlns="http://www.w3.org/2000/svg" width="24.243" height="27" viewBox="0 0 24.243 27">
  <path id="Shape" d="M24.222,10.276a.46.46,0,0,0-.351-.345L16.021,8.6,12.511.283a.409.409,0,0,0-.778,0L8.222,8.6.372,9.931a.46.46,0,0,0-.351.345.568.568,0,0,0,.11.519l5.681,6.472L4.47,26.406a.552.552,0,0,0,.172.5.379.379,0,0,0,.457.039l7.022-4.314,7.021,4.314a.385.385,0,0,0,.2.058.393.393,0,0,0,.255-.1.549.549,0,0,0,.172-.5l-1.341-9.138L24.113,10.8A.569.569,0,0,0,24.222,10.276Z" transform="translate(0 0)" fill="rgba(112,112,112,0.24)"/>
</svg>
