<svg xmlns="http://www.w3.org/2000/svg" width="25.288" height="24.162" viewBox="0 0 25.288 24.162">
  <path id="Path_1700" data-name="Path 1700" d="M386.118,171.293a1.124,1.124,0,0,1,2.139,0l2.214,6.813a1.126,1.126,0,0,0,1.07.777H398.7a1.125,1.125,0,0,1,.662,2.035l-5.8,4.211a1.123,1.123,0,0,0-.408,1.257l2.213,6.813a1.125,1.125,0,0,1-1.731,1.258l-5.8-4.211a1.127,1.127,0,0,0-1.323,0l-5.8,4.211A1.125,1.125,0,0,1,379,193.2l2.213-6.813a1.123,1.123,0,0,0-.408-1.257l-5.8-4.211a1.125,1.125,0,0,1,.662-2.035h7.163a1.126,1.126,0,0,0,1.07-.777Z" transform="translate(-374.544 -170.515)" fill="#69be96"/>
</svg>
