<svg xmlns="http://www.w3.org/2000/svg" width="36.041" height="30.781" viewBox="0 0 36.041 30.781">
  <path id="heart-regular" d="M15.895,72.765l-.176-.162L3.386,61.151A10.6,10.6,0,0,1,0,53.379v-.232a10.323,10.323,0,0,1,16.261-8.44,10.57,10.57,0,0,1,1.76,1.57,9.176,9.176,0,0,1,.95-.936,10.016,10.016,0,0,1,.81-.634h0a10.316,10.316,0,0,1,16.261,8.44v.232a10.6,10.6,0,0,1-3.386,7.771L20.323,72.6l-.176.162a3.134,3.134,0,0,1-2.126.838A3.1,3.1,0,0,1,15.895,72.765Zm.936-22.751a.369.369,0,0,1-.07-.077l-1.253-1.408-.007-.007h0A6.943,6.943,0,0,0,3.379,53.147v.232a7.229,7.229,0,0,0,2.309,5.294L18.021,70.126,30.354,58.673a7.229,7.229,0,0,0,2.309-5.294v-.232a6.938,6.938,0,0,0-12.115-4.625l-.007.007-.007.007-1.253,1.408c-.021.028-.049.049-.07.077a1.682,1.682,0,0,1-2.379,0Z" transform="translate(0 -42.822)" fill="#00be64"/>
</svg>
