<svg xmlns="http://www.w3.org/2000/svg" width="33.23" height="31.81" viewBox="0 0 33.23 31.81">
  <path id="icons8-home_1_" data-name="icons8-home (1)" d="M17.615,1.051a.707.707,0,0,0-.429.145L1.264,13.623a.694.694,0,0,0,.857,1.093l.956-.746v18.2a.694.694,0,0,0,.692.692h9.692V20.4h8.307V32.861h9.692a.694.694,0,0,0,.692-.692v-18.2l.956.746a.712.712,0,0,0,.429.146.693.693,0,0,0,.429-1.239L18.043,1.2A.707.707,0,0,0,17.615,1.051Zm6.923,2.734v.727l4.154,3.24V3.785Z" transform="translate(-1 -1.051)" fill="#69be96"/>
</svg>
