<svg xmlns="http://www.w3.org/2000/svg" width="23.14" height="23.127" viewBox="0 0 23.14 23.127">
  <path id="Path_1403" data-name="Path 1403" d="M48.149,73.039A3.857,3.857,0,1,1,52,76.894,3.855,3.855,0,0,1,48.149,73.039Zm-2.085,0A5.941,5.941,0,1,0,52,67.1,5.939,5.939,0,0,0,46.063,73.039Zm10.729-6.173a1.389,1.389,0,1,0,1.389-1.387h0a1.389,1.389,0,0,0-1.389,1.387ZM47.33,82.451a6.4,6.4,0,0,1-2.149-.4,3.831,3.831,0,0,1-2.2-2.194,6.383,6.383,0,0,1-.4-2.148c-.056-1.219-.067-1.585-.067-4.673s.012-3.453.067-4.673a6.434,6.434,0,0,1,.4-2.147,3.829,3.829,0,0,1,2.2-2.2,6.387,6.387,0,0,1,2.149-.4c1.219-.056,1.586-.067,4.674-.067s3.455.012,4.676.067a6.44,6.44,0,0,1,2.148.4,3.828,3.828,0,0,1,2.2,2.2,6.38,6.38,0,0,1,.4,2.147c.056,1.22.067,1.585.067,4.673s-.011,3.453-.067,4.673a6.411,6.411,0,0,1-.4,2.148,3.831,3.831,0,0,1-2.2,2.194,6.4,6.4,0,0,1-2.148.4c-1.22.056-1.586.067-4.676.067s-3.455-.011-4.674-.067Zm-.1-20.906a8.483,8.483,0,0,0-2.809.537,5.914,5.914,0,0,0-3.384,3.382,8.473,8.473,0,0,0-.538,2.807c-.057,1.233-.07,1.627-.07,4.767s.013,3.535.07,4.767a8.474,8.474,0,0,0,.538,2.807A5.914,5.914,0,0,0,44.426,84a8.5,8.5,0,0,0,2.809.537c1.235.056,1.628.07,4.77.07s3.537-.013,4.77-.07A8.494,8.494,0,0,0,59.584,84a5.916,5.916,0,0,0,3.384-3.382,8.456,8.456,0,0,0,.537-2.807c.056-1.234.069-1.627.069-4.767s-.013-3.534-.069-4.767a8.482,8.482,0,0,0-.537-2.807,5.918,5.918,0,0,0-3.384-3.382,8.474,8.474,0,0,0-2.808-.537c-1.234-.056-1.628-.07-4.77-.07S48.469,61.488,47.234,61.545Z" transform="translate(-40.434 -61.475)" fill="#707070"/>
</svg>
