<svg xmlns="http://www.w3.org/2000/svg" width="21.073" height="35.624" viewBox="0 0 21.073 35.624">
  <path id="Path_240" data-name="Path 240" d="M45.037,38.508l-13.8-13.3,13.8-13.3a2.565,2.565,0,0,0,.794-1.84,2.621,2.621,0,0,0-.753-1.882,2.565,2.565,0,0,0-1.84-.794H43.2a2.594,2.594,0,0,0-1.84.753L25.594,23.33a2.66,2.66,0,0,0-.794,1.882,2.588,2.588,0,0,0,.794,1.882L41.4,42.271a2.7,2.7,0,0,0,1.84.753,2.66,2.66,0,0,0,1.882-.794,2.62,2.62,0,0,0,.753-1.882A2.386,2.386,0,0,0,45.037,38.508Z" transform="translate(-24.8 -7.4)" fill="#69be96"/>
</svg>
