<svg xmlns="http://www.w3.org/2000/svg" xmlns:xlink="http://www.w3.org/1999/xlink" width="28.48" height="28.48" viewBox="0 0 28.48 28.48">
  <defs>
    <clipPath id="clip-path">
      <rect id="Rectangle_737" data-name="Rectangle 737" width="28.48" height="28.48" transform="translate(0 0)" fill="#fff"/>
    </clipPath>
  </defs>
  <g id="Group_17973" data-name="Group 17973" clip-path="url(#clip-path)">
    <path id="Path_1405" data-name="Path 1405" d="M68.344,61.475a1.685,1.685,0,0,0-1.71,1.658V82.958a1.685,1.685,0,0,0,1.71,1.657h19.72a1.684,1.684,0,0,0,1.71-1.657V63.133a1.685,1.685,0,0,0-1.71-1.658Zm5.321,8.948V80.84H70.2V70.423Zm.228-3.222A1.806,1.806,0,0,1,71.935,69h-.022a1.807,1.807,0,1,1,1.981-1.8ZM79.045,80.84H75.582s.045-9.44,0-10.417h3.463V71.9a3.44,3.44,0,0,1,3.121-1.719c2.278,0,3.986,1.489,3.986,4.689V80.84H82.689V75.268c0-1.4-.5-2.356-1.754-2.356a1.9,1.9,0,0,0-1.777,1.267,2.374,2.374,0,0,0-.114.845Z" transform="translate(-64.26 -59.102)" fill="#707070" fill-rule="evenodd"/>
  </g>
</svg>
