<svg xmlns="http://www.w3.org/2000/svg" width="23.393" height="26.716" viewBox="0 0 23.393 26.716">
  <path id="Path_1441" data-name="Path 1441" d="M875.083,972.611a8.371,8.371,0,0,0-11.825,0l-9.032,9.025a.319.319,0,0,0,0,.443l1.277,1.277a.311.311,0,0,0,.44,0l9.032-9.025a5.933,5.933,0,1,1,8.392,8.388l-9.2,9.2-1.492,1.492a3.574,3.574,0,0,1-5.056-5.052l9.132-9.129a1.22,1.22,0,0,1,.862-.356h0a1.213,1.213,0,0,1,.855,2.072L861,988.4a.319.319,0,0,0,0,.443l1.277,1.277a.313.313,0,0,0,.44,0l7.461-7.461a3.643,3.643,0,0,0,0-5.149,3.652,3.652,0,0,0-5.157,0l-.886.889-8.243,8.24a6,6,0,0,0,8.489,8.485l10.7-10.693a8.367,8.367,0,0,0,0-11.825Z" transform="translate(-854.137 -970.166)" fill="#333"/>
</svg>
