<svg xmlns="http://www.w3.org/2000/svg" width="40.886" height="32.702" viewBox="0 0 40.886 32.702">
  <path id="money-bill-transfer-solid" d="M34.183,2.7A1.532,1.532,0,1,1,36.349.536l4.089,4.089a1.543,1.543,0,0,1,0,2.172l-4.089,4.089A1.532,1.532,0,1,1,34.183,8.72l1.47-1.47L24.535,7.238a1.533,1.533,0,0,1,0-3.067H35.659ZM6.709,24.17l-1.47,1.47H16.357a1.533,1.533,0,0,1,0,3.067H5.233l1.47,1.47a1.532,1.532,0,1,1-2.166,2.166L.447,28.259a1.543,1.543,0,0,1,0-2.172L4.536,22A1.532,1.532,0,0,1,6.7,24.163Zm-.575-20H21.59a3.32,3.32,0,0,0,2.946,4.856h7.5a3.32,3.32,0,0,0,5.578,3.118l1.233-1.233V24.617a4.093,4.093,0,0,1-4.089,4.089H19.3a3.32,3.32,0,0,0-2.946-4.856h-7.5a3.32,3.32,0,0,0-5.578-3.118L2.045,21.966V8.26A4.093,4.093,0,0,1,6.134,4.171ZM10.223,8.26H6.134v4.089A4.093,4.093,0,0,0,10.223,8.26ZM34.758,20.528a4.093,4.093,0,0,0-4.089,4.089h4.089ZM20.446,22.573a6.134,6.134,0,1,0-6.134-6.134A6.134,6.134,0,0,0,20.446,22.573Z" transform="translate(0 -0.087)" fill="#69be96"/>
</svg>
