<svg id="bell" xmlns="http://www.w3.org/2000/svg" xmlns:xlink="http://www.w3.org/1999/xlink" width="28" height="33" viewBox="0 0 28 33">
  <defs>
    <clipPath id="clip-path">
      <path id="icon_bell" data-name="icon / bell" d="M12.092,32.4a4.1,4.1,0,0,1-1.4-1.65,1.667,1.667,0,0,1,.51-2.1,1.193,1.193,0,0,1,1.781.6c.127.15.255.45.51.6a1.194,1.194,0,0,0,1.781-.6,1.3,1.3,0,0,1,1.782-.6c.636.3.636,1.35.254,2.1A3.764,3.764,0,0,1,14,33,3.183,3.183,0,0,1,12.092,32.4ZM1.273,25.5C.509,25.5,0,24.9,0,24s.509-1.5,1.273-1.5a2.81,2.81,0,0,0,2.545-3V12C3.818,5.4,8.4,0,14,0S24.182,5.4,24.182,12v7.5a2.81,2.81,0,0,0,2.545,3c.764,0,1.273.6,1.273,1.5s-.509,1.5-1.273,1.5Z" transform="translate(0)" fill="#69be96"/>
    </clipPath>
  </defs>
  <g id="Group_183" data-name="Group 183" transform="translate(0)">
    <path id="icon_bell-2" data-name="icon / bell" d="M12.092,32.4a4.1,4.1,0,0,1-1.4-1.65,1.667,1.667,0,0,1,.51-2.1,1.193,1.193,0,0,1,1.781.6c.127.15.255.45.51.6a1.194,1.194,0,0,0,1.781-.6,1.3,1.3,0,0,1,1.782-.6c.636.3.636,1.35.254,2.1A3.764,3.764,0,0,1,14,33,3.183,3.183,0,0,1,12.092,32.4ZM1.273,25.5C.509,25.5,0,24.9,0,24s.509-1.5,1.273-1.5a2.81,2.81,0,0,0,2.545-3V12C3.818,5.4,8.4,0,14,0S24.182,5.4,24.182,12v7.5a2.81,2.81,0,0,0,2.545,3c.764,0,1.273.6,1.273,1.5s-.509,1.5-1.273,1.5Z" transform="translate(0)" fill="#69be96"/>
  </g>
</svg>
