<svg xmlns="http://www.w3.org/2000/svg" width="27" height="27" viewBox="0 0 27 27">
  <path id="add_box_24dp_5F6368_FILL0_wght400_GRAD0_opsz24" d="M132-819h3v-6h6v-3h-6v-6h-3v6h-6v3h6Zm-9,6a2.889,2.889,0,0,1-2.119-.881A2.889,2.889,0,0,1,120-816v-21a2.889,2.889,0,0,1,.881-2.119A2.889,2.889,0,0,1,123-840h21a2.889,2.889,0,0,1,2.119.881A2.889,2.889,0,0,1,147-837v21a2.889,2.889,0,0,1-.881,2.119A2.889,2.889,0,0,1,144-813Zm0-3h21v-21H123Zm0-21v0Z" transform="translate(-120 840)" fill="#00be64"/>
</svg>
