<svg xmlns="http://www.w3.org/2000/svg" width="26.577" height="26.577" viewBox="0 0 26.577 26.577">
  <path id="Path_1492" data-name="Path 1492" d="M1540.729,103.64a4.321,4.321,0,0,0-.8,5.771,19.04,19.04,0,0,0,4.742,4.735,4.323,4.323,0,0,0,5.771-.8l.017.008a19.662,19.662,0,0,0,5.417,1.62v3.9h-.008A20.26,20.26,0,0,1,1535.2,98.209V98.2h3.9v0a19.924,19.924,0,0,0,1.62,5.419l.009.015Zm15.145,18.187h1.477a1.488,1.488,0,0,0,1.046-.433,1.467,1.467,0,0,0,.43-1.044V113.7a1.469,1.469,0,0,0-1.257-1.462l-1.266-.186a16.79,16.79,0,0,1-4.607-1.379l-1.114-.516a1.479,1.479,0,0,0-1.822.482l-.506.7a1.379,1.379,0,0,1-1.907.373,15.986,15.986,0,0,1-3.991-3.994,1.383,1.383,0,0,1,.371-1.906l.709-.5a1.49,1.49,0,0,0,.481-1.823l-.523-1.113a16.949,16.949,0,0,1-1.375-4.612l-.186-1.261a1.478,1.478,0,0,0-1.46-1.259h-6.648a1.49,1.49,0,0,0-1.046.433,1.468,1.468,0,0,0-.43,1.044V98.2a23.21,23.21,0,0,0,23.624,23.623Z" transform="translate(-1532.25 -95.25)" fill="#69be96"/>
</svg>
