<svg xmlns="http://www.w3.org/2000/svg" width="30" height="30" viewBox="0 0 30 30">
  <path id="living_24dp_5F6368_FILL0_wght400_GRAD0_opsz24" d="M83-850a2.889,2.889,0,0,1-2.119-.881A2.889,2.889,0,0,1,80-853v-24a2.889,2.889,0,0,1,.881-2.119A2.889,2.889,0,0,1,83-880h24a2.889,2.889,0,0,1,2.119.881A2.889,2.889,0,0,1,110-877v24a2.889,2.889,0,0,1-.881,2.119A2.889,2.889,0,0,1,107-850Zm0-3h24v-24H83Zm4.5-3h15a2.889,2.889,0,0,0,2.119-.881A2.889,2.889,0,0,0,105.5-859v-5.25a3.54,3.54,0,0,0-.506-1.856,3.984,3.984,0,0,0-1.369-1.369V-869.5a4.34,4.34,0,0,0-1.312-3.187A4.34,4.34,0,0,0,99.125-874h-8.25a4.34,4.34,0,0,0-3.187,1.313,4.34,4.34,0,0,0-1.312,3.188v2.025a3.984,3.984,0,0,0-1.369,1.369,3.54,3.54,0,0,0-.506,1.856V-859a2.889,2.889,0,0,0,.881,2.119A2.889,2.889,0,0,0,87.5-856Zm0-2.25a.735.735,0,0,1-.544-.206A.735.735,0,0,1,86.75-859v-5.25a1.451,1.451,0,0,1,.431-1.069,1.451,1.451,0,0,1,1.069-.431,1.451,1.451,0,0,1,1.069.431,1.451,1.451,0,0,1,.431,1.069v3h10.5v-3a1.451,1.451,0,0,1,.431-1.069,1.451,1.451,0,0,1,1.069-.431,1.451,1.451,0,0,1,1.069.431,1.451,1.451,0,0,1,.431,1.069V-859a.735.735,0,0,1-.206.544.735.735,0,0,1-.544.206ZM92-863.5v-.75a3.564,3.564,0,0,0-.975-2.513,3.549,3.549,0,0,0-2.4-1.162V-869.5a2.185,2.185,0,0,1,.637-1.612,2.185,2.185,0,0,1,1.613-.638h8.25a2.185,2.185,0,0,1,1.613.638,2.185,2.185,0,0,1,.637,1.612v1.575a3.549,3.549,0,0,0-2.4,1.162A3.564,3.564,0,0,0,98-864.25v.75ZM83-853v0Z" transform="translate(-80 880)" fill="#00be64"/>
</svg>
