<svg xmlns="http://www.w3.org/2000/svg" width="39.735" height="39.742" viewBox="0 0 39.735 39.742">
  <path id="Path_1529" data-name="Path 1529" d="M20.847,3.116,7.592,5.994C-1.316,7.949-.7,12.968,8.954,17.156L13.218,19l1.857,4.229c4.213,9.579,9.291,10.194,11.257,1.363l2.934-13.122C30.566,5.577,26.792,1.818,20.847,3.116Zm1.485,8.218-5.1,5.09a.909.909,0,0,1-.77.236,1.472,1.472,0,0,1-.851-.432,1.163,1.163,0,0,1-.2-1.608l5.1-5.09a1.187,1.187,0,0,1,1.621.2A1.163,1.163,0,0,1,22.333,11.334Z" transform="matrix(-0.695, -0.719, 0.719, -0.695, 18.451, 42.657)" fill="#fff"/>
</svg>
