<svg xmlns="http://www.w3.org/2000/svg" width="23.14" height="19.075" viewBox="0 0 23.14 19.075">
  <path id="Path_1404" data-name="Path 1404" d="M76.571,64.421a9.488,9.488,0,0,1-2.341.667c.377-.064.931-.743,1.152-1.017a4.3,4.3,0,0,0,.753-1.394c0-.038.038-.091,0-.118a.13.13,0,0,0-.124,0,11.837,11.837,0,0,1-2.772,1.077.194.194,0,0,1-.1,0,.2.2,0,0,1-.09-.051,2.667,2.667,0,0,0-.242-.253,5.055,5.055,0,0,0-1.324-.855,4.656,4.656,0,0,0-2.061-.339,4.992,4.992,0,0,0-1.959.538,5.078,5.078,0,0,0-1.55,1.313,4.973,4.973,0,0,0-.942,1.884,5.174,5.174,0,0,0-.049,1.991c0,.113,0,.129-.1.113a14.82,14.82,0,0,1-9.559-4.85C55.149,63,55.09,63,55,63.13a4.852,4.852,0,0,0,.824,5.721c.188.178.382.35.587.511a4.805,4.805,0,0,1-1.841-.511c-.108-.07-.167-.032-.172.1a3.113,3.113,0,0,0,0,.538,4.887,4.887,0,0,0,3.014,3.9,3.052,3.052,0,0,0,.608.188,5.507,5.507,0,0,1-1.8.054c-.129-.027-.178.043-.129.167a5.1,5.1,0,0,0,3.768,3.176c.172.027.344.027.538.07l-.032.032c-.371.678-1.873,1.136-2.562,1.373a9.2,9.2,0,0,1-3.929.506c-.21-.032-.258-.027-.312,0s0,.086.059.14c.269.178.538.333.818.484a12.86,12.86,0,0,0,2.626,1.077,14,14,0,0,0,13.591-3.181c2.788-2.767,3.768-6.582,3.768-10.4,0-.145.178-.231.28-.307a9.239,9.239,0,0,0,1.846-1.927.565.565,0,0,0,.129-.388h0C76.674,64.362,76.674,64.378,76.571,64.421Z" transform="translate(-53.534 -62.13)" fill="#707070"/>
</svg>
