<svg xmlns="http://www.w3.org/2000/svg" width="36.503" height="41.718" viewBox="0 0 36.503 41.718">
  <path id="user-regular" d="M24.77,10.43a6.518,6.518,0,1,0-6.518,6.518A6.518,6.518,0,0,0,24.77,10.43Zm-16.948,0a10.43,10.43,0,1,1,10.43,10.43A10.43,10.43,0,0,1,7.822,10.43ZM4.017,37.807H32.495a10.62,10.62,0,0,0-10.511-9.126H14.536A10.62,10.62,0,0,0,4.025,37.807ZM0,39.3A14.525,14.525,0,0,1,14.528,24.77h7.447A14.525,14.525,0,0,1,36.5,39.3a2.42,2.42,0,0,1-2.42,2.42H2.42A2.42,2.42,0,0,1,0,39.3Z" fill="#fff"/>
</svg>
