<svg xmlns="http://www.w3.org/2000/svg" width="62.537" height="48.64" viewBox="0 0 62.537 48.64">
  <path id="cc-visa-brands-solid" d="M51.039,53.638s.825,4.039,1.01,4.886H48.423c.358-.966,1.737-4.723,1.737-4.723-.022.033.358-.988.575-1.618l.3,1.455Zm11.5-16.427V75.429a5.213,5.213,0,0,1-5.211,5.211H5.211A5.213,5.213,0,0,1,0,75.429V37.211A5.213,5.213,0,0,1,5.211,32H57.326A5.213,5.213,0,0,1,62.537,37.211ZM16.557,64.485l6.862-16.85H18.8L14.538,59.143l-.467-2.334-1.52-7.752a1.816,1.816,0,0,0-1.976-1.422H3.55l-.076.337a17.229,17.229,0,0,1,4.582,1.857l3.887,14.657Zm10.249.022,2.736-16.872H25.178L22.453,64.506ZM42,58.991c.022-1.922-1.151-3.387-3.659-4.593-1.531-.771-2.465-1.292-2.465-2.085.022-.717.793-1.455,2.508-1.455a7.481,7.481,0,0,1,3.246.641l.391.185.6-3.648a10.842,10.842,0,0,0-3.909-.717c-4.31,0-7.339,2.3-7.361,5.581-.033,2.421,2.171,3.767,3.822,4.582,1.683.825,2.258,1.368,2.258,2.1-.022,1.129-1.368,1.65-2.617,1.65a8.7,8.7,0,0,1-4.093-.9l-.575-.271-.608,3.789a13.322,13.322,0,0,0,4.864.9C38.977,64.756,41.963,62.487,42,58.991Zm15.33,5.515L53.808,47.634H50.431a2.147,2.147,0,0,0-2.28,1.4L41.67,64.506h4.582s.749-2.085.912-2.53h5.6c.13.6.521,2.53.521,2.53Z" transform="translate(0 -32)" fill="#fff"/>
</svg>
